<?xml version="1.0" encoding="utf-8" ?><svg xmlns="http://www.w3.org/2000/svg" xmlns:xlink="http://www.w3.org/1999/xlink" width="1024" height="1024" viewBox="0 0 1024 1024"><path fill="#FEEF10" d="M503.118 68.0632C748.09 63.1083 950.746 257.578 955.891 502.546C961.036 747.514 766.724 950.321 521.76 955.657C276.527 960.998 73.4485 766.425 68.2978 521.188C63.1471 275.951 257.877 73.0236 503.118 68.0632ZM526.773 930.719C758.058 922.615 938.994 728.574 930.932 497.288C922.87 266.002 728.862 85.0303 497.574 93.0506C266.227 101.073 85.1997 295.141 93.2638 526.487C101.328 757.832 295.429 938.825 526.773 930.719Z"/><path fill="#FEEF10" d="M472.526 144.609C485.025 132.926 497.43 125.671 515.071 126.407C531.635 127.098 542.245 134.66 553.935 145.376C558.935 144.11 578.455 148.378 583.724 149.482C640.719 161.028 694.245 185.676 740.07 221.479C816.663 281.14 866.746 368.508 879.524 464.751C883.443 495.351 883.902 535.688 879.194 566.297C869.537 629.089 843.836 686.838 804.984 737.061C743.31 816.704 652.085 868.062 552.004 879.485C533.088 881.798 509.189 881.964 490.335 880.74C415.461 876.137 343.774 848.794 284.853 802.364C206.736 741.082 156.136 651.301 144.167 552.74C134.648 473.556 155.069 388.648 196.236 320.747C243.325 243.078 318.313 186.134 404.594 158.682C426.807 151.615 449.412 147.378 472.526 144.609ZM563.202 243.665C553.941 259.92 545.24 269.919 526.474 275.702C518.088 278.286 504.814 278.255 496.575 275.188C496.938 271.915 493.244 272.263 491.063 272.945C477.526 266.475 468.489 255.685 461.923 242.407C409.042 253.653 366.419 274.862 326.557 311.659C309.896 326.843 295.216 344.067 282.865 362.924C199.163 492.161 236.821 661.572 366.485 743.583C386.35 756.147 414.872 769.469 437.797 775.332C437.883 782.972 437.895 790.612 437.834 798.252C430.682 797.69 403.369 787.091 396.14 783.937C323.88 752.484 266.851 693.927 237.319 620.86C207.984 548.04 209.339 466.453 241.076 394.647C272.951 321.826 330.632 267.346 403.737 236.949C414.674 232.372 425.86 228.412 437.241 225.088C443.034 223.455 451.396 222.251 456.611 220.056C455.969 204.87 455.835 183.043 459.178 168.762C445.814 169.949 432.108 173.524 419.206 177.18C359.981 193.963 304.414 227.251 261.618 271.504C191.223 344.295 155.901 445.967 165.854 546.598C173.756 626.503 209.481 697.852 264.499 755.748C272.192 763.836 280.716 770.898 289.187 777.984C321.919 805.778 359.62 827.117 400.297 840.872C413.997 845.465 429.472 849.381 443.592 852.842C457.085 869.758 477.011 873.172 494.165 859.18C501.998 860.717 522.381 860.161 530.753 859.386C549.759 873.37 566.873 869.52 581.562 852.262C587.155 851.774 596.26 849.336 601.884 847.863C634.208 839.312 665.103 826.063 693.58 808.54C773.818 759.16 831.022 679.79 852.49 588.054C872.735 503.615 856.645 409.21 811.562 334.84C766.33 260.224 701.047 208.223 618.252 180.613C600.03 174.536 584.294 172.568 566.499 168.316C570.609 186.533 569.878 203.202 569.534 221.851C573.827 221.022 583.034 223.809 587.528 225.085C619.051 233.868 648.974 247.613 676.175 265.804C810.922 356.738 850.77 537.797 759.667 674.261C728.564 720.852 684.891 758.716 633.94 782.022C620.653 788.044 601.38 795.877 587.166 798.83C587.636 792.276 587.344 782.362 587.169 775.705C594.43 772.737 605.024 769.888 613.158 766.743C639.018 756.736 663.071 742.574 684.367 724.815C740.921 678.287 778.581 612.49 785.547 539.169C792.505 466.414 770.188 393.886 723.533 337.629C694.164 302.234 656.253 274.633 613.627 257.698C597.757 251.393 580.215 245.237 563.202 243.665Z"/><path fill="#FEEF10" fill-opacity="0.98039216" d="M505.537 786.847C511.398 786.012 514.263 786.872 519.746 786.708C519.567 792.116 519.418 803.34 519.761 808.48C516.267 808.279 511.555 807.929 508.156 808.162C508.001 804.609 508.425 800.546 508.721 797.014C508.99 793.808 506.837 791.618 505.782 794.513C505.65 794.873 505.717 800.725 505.59 802.008C505.426 797.336 505.413 791.524 505.537 786.847Z"/><path d="M585.775 762.363C585.719 759.392 585.293 731.846 586.2 731.211L586.277 731.256C586.592 731.785 586.653 732.444 586.733 733.043L586.96 734.759C587.479 741.67 586.924 754.603 587.002 762.001L585.775 762.363Z"/><path fill="#FEEF10" fill-opacity="0.91764706" d="M505.59 802.008C505.717 800.725 505.65 794.873 505.782 794.513C506.837 791.618 508.99 793.808 508.721 797.014C508.425 800.546 508.001 804.609 508.156 808.162L505.512 807.464C505.524 805.602 505.462 803.873 505.59 802.008Z"/><path d="M587.002 762.001C587.036 765.062 587.107 770.184 586.892 773.207C586.734 773.321 586.589 773.46 586.41 773.535L586.346 773.508C585.311 768.795 585.873 767.019 585.775 762.363L587.002 762.001Z"/><path d="M491.063 272.945C493.244 272.263 496.938 271.915 496.575 275.188C494.336 274.372 493.267 273.972 491.063 272.945Z"/><path d="M454.601 294.229C455.962 294.023 460.754 292.516 462.2 292.068C465.621 291.008 473.671 289.007 477.063 288.802C492.559 287.867 550.617 286.274 561.961 291.301C578.709 290.215 615.298 307.991 630.309 316.602C705.828 359.927 750.379 444.693 742.903 531.425C738.494 581.203 718.059 628.209 684.667 665.387C659.579 693.733 623.29 718.186 587.229 729.921C587.125 731.5 586.983 733.189 586.96 734.759L586.733 733.043C586.653 732.444 586.592 731.785 586.277 731.256L586.2 731.211C585.293 731.846 585.719 759.392 585.775 762.363C585.873 767.019 585.311 768.795 586.346 773.508L586.41 773.535C586.589 773.46 586.734 773.321 586.892 773.207L587.169 775.705C587.344 782.362 587.636 792.276 587.166 798.83L587.12 799.41C585.915 815.85 589.874 838.649 581.562 852.262C566.873 869.52 549.759 873.37 530.753 859.386C515.925 842.378 521.184 829.031 519.761 808.48C519.418 803.34 519.567 792.116 519.746 786.708C520.315 781.567 520.017 769.77 520.002 764.07C519.987 758.265 520.28 746.742 519.702 741.564C515.682 741.448 509.435 741.222 505.563 740.463C505.16 754.921 505.151 772.422 505.537 786.847C505.413 791.524 505.426 797.336 505.59 802.008C505.462 803.873 505.524 805.602 505.512 807.464C504.907 827.685 508.328 843.975 494.165 859.18C477.011 873.172 457.085 869.758 443.592 852.842C434.966 834.383 439.3 818.651 437.886 798.92L437.834 798.252C437.895 790.612 437.883 782.972 437.797 775.332C438.698 770.58 438.375 734.243 437.825 729.866C427.263 727.707 405.492 716.636 395.896 711.032C314.763 663.654 267.229 567.559 284.332 474.325C289.127 448.186 296.781 423.929 310.072 400.894C334.557 358.872 371.537 325.532 415.862 305.516C422.239 302.647 449.202 291.022 454.601 294.229ZM436.539 382.447C427.528 386.435 431.69 414.94 430.28 424.289C428.079 438.889 428.299 454.425 426.246 469.148C425.579 473.924 424.93 481.036 425.551 485.775C425.312 490.275 424.626 494.985 424.058 499.468C421.914 516.374 421.009 533.325 418.967 550.246C415.804 554.079 417.23 557.557 415.252 562.001C413.569 565.781 411.435 566.968 410.094 570.431C409.089 571.837 404.758 573.892 403.133 574.477C395.772 577.129 387.647 576.659 380.641 573.176C375.217 570.422 371.255 566.078 369.436 560.243C368.448 557.105 368.007 553.821 368.13 550.533C368.38 543.117 369.871 532.282 370.685 524.601L375.576 477.123C377.415 456.827 379.412 436.546 381.568 416.282C384.765 383.448 384.652 369.007 399.713 339.041C366.321 358.118 336.005 394.725 320.174 429.604C315.888 439.047 312.295 449.978 309.571 459.971C295.725 511.874 302.915 567.143 329.577 613.776C348.224 646.246 376.053 674.444 408.641 693.187C417.472 698.266 428.516 702.451 437.963 706.498C438.674 692.166 438.155 676.133 438.199 661.678L438.163 567.55L437.996 461.268C437.995 452.807 438.661 385.758 436.539 382.447ZM583.239 385.622C581.915 409.691 584.498 433.915 585.196 458C585.5 468.488 585.233 479.004 585.354 489.497C585.453 498.071 585.949 506.622 585.878 515.201C585.798 524.906 585.336 534.623 585.351 544.324C585.38 562.239 586.553 580.251 586.248 598.143C586.007 612.266 582.981 696.198 586.98 704.196L587.045 705.934C632.641 689.133 670.799 656.703 694.731 614.412C723.017 564.347 728.922 508.731 713.265 453.531C700.567 408.761 665.856 362.436 625.176 339.571C631.44 351.405 635.921 364.099 638.473 377.243C640.542 387.866 641.493 402.223 642.454 412.993L646.652 456.246L653.07 524.304C654.014 535.418 656.662 549.634 654.068 560.452C652.669 566.283 647.822 571.248 642.464 573.928C635.401 577.412 627.221 577.859 619.82 575.165C608.106 570.959 606.272 560.788 605.046 549.87C603.758 538.409 602.913 526.88 601.781 515.404L592.495 423.82L589.849 398.8C589.589 396.203 588.826 384.085 587.577 382.441C585.227 383.02 585.279 383.648 583.239 385.622ZM586.937 539.782C587.014 543.037 587.102 545.961 586.933 549.218C586.092 552.364 586.282 567.858 586.282 571.749C585.982 568.06 586.133 561.138 586.098 557.264C585.99 546.241 586.033 535.218 586.226 524.197C586.426 528.78 585.942 535.503 586.937 539.782ZM505.571 719.396C511.261 718.272 514.281 719.891 519.909 719.508C520.363 711.516 520.146 700.33 520.15 692.222L520.166 645.636C520.217 630.51 520.161 615.385 519.998 600.26C519.937 594.12 519.711 587.378 519.856 581.294C520.037 573.677 512.371 569.504 507.317 574.618C506.343 575.595 505.736 576.878 505.598 578.251C505.197 581.9 505.328 590.511 505.293 594.464L505.127 626.371C505.061 656.995 504.602 688.922 505.571 719.396Z"/><path d="M583.239 385.622C585.279 383.648 585.227 383.02 587.577 382.441C585.592 386.856 586.52 417.677 586.544 424.15L586.953 498.448C587.028 511.219 587.488 527.282 586.937 539.782C585.942 535.503 586.426 528.78 586.226 524.197C586.033 535.218 585.99 546.241 586.098 557.264C586.133 561.138 585.982 568.06 586.282 571.749C586.282 567.858 586.092 552.364 586.933 549.218C587.27 600.877 587.285 652.537 586.98 704.196C582.981 696.198 586.007 612.266 586.248 598.143C586.553 580.251 585.38 562.239 585.351 544.324C585.336 534.623 585.798 524.906 585.878 515.201C585.949 506.622 585.453 498.071 585.354 489.497C585.233 479.004 585.5 468.488 585.196 458C584.498 433.915 581.915 409.691 583.239 385.622Z"/><path d="M425.551 485.775C424.93 481.036 425.579 473.924 426.246 469.148C428.299 454.425 428.079 438.889 430.28 424.289C431.69 414.94 427.528 386.435 436.539 382.447C434.752 386.201 434.288 397.559 433.821 402.24L428.089 462.319C427.795 465.226 426.073 483.646 425.551 485.775Z"/><path d="M410.094 570.431C411.435 566.968 413.569 565.781 415.252 562.001C417.23 557.557 415.804 554.079 418.967 550.246C417.461 559.02 418.114 564.467 410.094 570.431Z"/><path fill="#FEEF10" d="M561.961 291.301C578.709 290.215 615.298 307.991 630.309 316.602C705.828 359.927 750.379 444.693 742.903 531.425C738.494 581.203 718.059 628.209 684.667 665.387C659.579 693.733 623.29 718.186 587.229 729.921C587.339 722.042 587.136 713.838 587.045 705.934C632.641 689.133 670.799 656.703 694.731 614.412C723.017 564.347 728.922 508.731 713.265 453.531C700.567 408.761 665.856 362.436 625.176 339.571C622.318 335.622 619.035 330.085 616.053 326.566C599.364 306.871 584.914 299.916 561.961 291.301Z"/><path fill="#FEEF10" d="M437.825 729.866C427.263 727.707 405.492 716.636 395.896 711.032C314.763 663.654 267.229 567.559 284.332 474.325C289.127 448.186 296.781 423.929 310.072 400.894C334.557 358.872 371.537 325.532 415.862 305.516C422.239 302.647 449.202 291.022 454.601 294.229L454.18 294.461C449.929 296.758 445.182 298.508 440.592 300.931C428.199 307.474 417.686 315.989 408.439 326.499C405.218 330.16 402.116 336.25 399.713 339.041C366.321 358.118 336.005 394.725 320.174 429.604C315.888 439.047 312.295 449.978 309.571 459.971C295.725 511.874 302.915 567.143 329.577 613.776C348.224 646.246 376.053 674.444 408.641 693.187C417.472 698.266 428.516 702.451 437.963 706.498C437.996 714.288 437.95 722.078 437.825 729.866Z"/><path fill="#FEEF10" d="M505.571 719.396C511.261 718.272 514.281 719.891 519.909 719.508C519.621 725.005 519.443 736.184 519.702 741.564C515.682 741.448 509.435 741.222 505.563 740.463C505.512 733.933 505.32 725.826 505.571 719.396Z"/><path fill="#FEEF10" d="M569.534 221.851C573.827 221.022 583.034 223.809 587.528 225.085C619.051 233.868 648.974 247.613 676.175 265.804C810.922 356.738 850.77 537.797 759.667 674.261C728.564 720.852 684.891 758.716 633.94 782.022C620.653 788.044 601.38 795.877 587.166 798.83C587.636 792.276 587.344 782.362 587.169 775.705C594.43 772.737 605.024 769.888 613.158 766.743C639.018 756.736 663.071 742.574 684.367 724.815C740.921 678.287 778.581 612.49 785.547 539.169C792.505 466.414 770.188 393.886 723.533 337.629C694.164 302.234 656.253 274.633 613.627 257.698C597.757 251.393 580.215 245.237 563.202 243.665C566.433 238.282 568.508 228.025 569.534 221.851Z"/><path fill="#FEEF10" d="M437.834 798.252C430.682 797.69 403.369 787.091 396.14 783.937C323.88 752.484 266.851 693.927 237.319 620.86C207.984 548.04 209.339 466.453 241.076 394.647C272.951 321.826 330.632 267.346 403.737 236.949C414.674 232.372 425.86 228.412 437.241 225.088C443.034 223.455 451.396 222.251 456.611 220.056C457.452 228.004 458.7 235 461.923 242.407C409.042 253.653 366.419 274.862 326.557 311.659C309.896 326.843 295.216 344.067 282.865 362.924C199.163 492.161 236.821 661.572 366.485 743.583C386.35 756.147 414.872 769.469 437.797 775.332C437.883 782.972 437.895 790.612 437.834 798.252Z"/><path d="M472.526 144.609C485.025 132.926 497.43 125.671 515.071 126.407C531.635 127.098 542.245 134.66 553.935 145.376C559.744 152.943 563.427 159.128 566.499 168.316C570.609 186.533 569.878 203.202 569.534 221.851C568.508 228.025 566.433 238.282 563.202 243.665C553.941 259.92 545.24 269.919 526.474 275.702C518.088 278.286 504.814 278.255 496.575 275.188C496.938 271.915 493.244 272.263 491.063 272.945C477.526 266.475 468.489 255.685 461.923 242.407C458.7 235 457.452 228.004 456.611 220.056C455.969 204.87 455.835 183.043 459.178 168.762C461.369 159.499 466.423 151.719 472.526 144.609Z"/><path d="M586.933 549.218C586.092 552.364 586.282 567.858 586.282 571.749C585.982 568.06 586.133 561.138 586.098 557.264C585.99 546.241 586.033 535.218 586.226 524.197C586.426 528.78 585.942 535.503 586.937 539.782C587.014 543.037 587.102 545.961 586.933 549.218Z"/></svg>