<?xml version="1.0" encoding="utf-8" ?><svg xmlns="http://www.w3.org/2000/svg" xmlns:xlink="http://www.w3.org/1999/xlink" width="1024" height="1024" viewBox="0 0 1024 1024"><path fill="#070707" d="M509.939 127.094C512.493 126.76 515.548 126.493 517.206 128.834C521.644 135.096 525.803 141.687 530.141 148.013C543.669 167.339 557.035 186.776 570.24 206.324C604.176 256.275 639.233 305.66 672.977 355.76C674.152 357.505 675 358.843 675.124 360.989C675.726 371.362 675.466 382.032 675.467 392.442L675.438 446.079L675.475 606.049L675.513 710.588L675.509 740.214C675.505 745.789 675.739 754.01 674.907 759.294C670.561 765.754 652.797 779.247 645.928 785.244L569.745 851.351L534.928 881.368C531.286 884.518 517.553 896.949 514.115 898.583C508.752 898.617 507.832 896.677 503.867 893.422C497.82 888.457 492.216 883.012 486.26 877.925L398.528 802.208L366.853 774.689C361.829 770.369 353.918 764.783 349.974 759.865C349.185 752.161 349.518 735.588 349.47 727.202L349.181 665.38L349.149 462.527L349.08 391.048C349.049 381.174 348.769 369.685 349.396 359.738C349.46 358.738 350.368 357.248 350.963 356.38L458.863 200.538L489.501 155.999C492.445 151.696 506.936 129.293 509.939 127.094ZM430.057 684.811C444.263 692.514 459.755 699.756 474.259 707.232C482.454 711.456 498.728 720.391 506.558 723.415C507.628 690.413 505.787 656.703 506.512 623.638C506.618 618.778 506.624 613.432 506.488 608.579C493.16 608.533 477.471 601.247 467.543 592.576C455.088 581.725 447.423 563.775 446.47 547.491C444.503 513.87 472.392 481.303 506.476 479.749C506.971 465.074 506.64 449.26 506.576 434.523L506.57 356.426C497.765 360.187 490.637 364.737 482.309 369.084C465.191 378.02 447.27 389.147 430.127 397.625C429.126 430.612 430.018 468.175 430.007 501.511L430.057 684.811ZM606.025 395.745L606.009 686.541C615.907 695.377 624.231 703.457 633.627 712.855C643.363 722.569 653.167 731.204 662.902 740.66C663.477 709.433 662.99 677.07 662.957 645.776L662.978 485.222L662.954 404.527C662.942 397.718 663.355 374.074 662.514 368.716C644.227 376.793 623.836 386.687 606.025 395.745ZM519.354 479.755C524.054 480.6 528.823 481.403 533.355 482.928C565.092 493.607 582.635 524.618 576.551 557.152C573.577 573.545 564.115 588.044 550.307 597.367C540.037 604.331 531.387 606.929 519.418 609.283C518.796 618.817 519.029 630.328 519.016 640.02L519.079 688.763C519.126 695.552 518.619 716.492 519.541 721.89C527.626 718.871 536.771 714.044 544.466 710.11L574.984 694.498C579.591 692.146 589.418 686.79 593.981 685.215L594.075 586.92L594.007 397.89C581.03 389.615 563.73 381.285 550.046 373.698C541.526 368.974 527.532 360.701 519.2 357.286C518.636 378.998 518.814 401.201 518.994 422.949C519.148 441.417 518.359 461.382 519.354 479.755ZM362.101 740.687C371.889 731.094 382.001 721.776 391.685 712.094C400.392 703.579 409.197 695.164 418.097 686.85L417.909 531.556C418.291 486.393 418.352 441.229 418.092 396.066L381.982 379.343C375.736 376.407 368.283 372.539 362.045 369.987C361.177 439.038 362.056 508.879 361.928 578L361.896 686.932C361.932 704.386 361.526 723.399 362.101 740.687ZM366.749 753.479C399.201 764.724 431.744 775.708 464.373 786.428L490.845 795.463C495.181 796.912 502.183 799.414 506.545 800.308C507.057 794.313 506.616 784.779 506.586 778.361L506.548 737.535L452.771 710.242C446.787 707.201 430.873 698.546 425.382 696.843L366.749 753.479ZM505.975 177.922C504.975 180.869 503.914 183.648 502.802 186.551C499.788 187.097 498.353 191.157 498.972 193.263L499.019 193.29L499.076 193.253C499.343 194.164 499.305 194.622 499.38 195.602C499.198 196.86 495.668 206.821 495.08 208.534C491.078 220.285 486.982 232.004 482.792 243.69L455.257 323.181C448.713 341.99 441.744 361.249 435.527 380.145C444.135 376.148 455.751 369.411 464.313 364.77L506.481 342.424C507.054 299.032 505.918 255.495 506.371 212.089C506.489 200.732 506.675 189.254 505.975 177.922ZM589.316 380.409C588.803 376.318 582.266 359.669 580.526 354.747L562.213 301.464L534.297 220.521C530.895 210.561 527.539 200.487 523.974 190.595C523.093 188.148 520.777 181.628 519.66 179.492C518.902 186.996 519.255 196.734 519.27 204.443L519.124 240.466C518.927 263.446 518.897 286.427 519.033 309.407C519.087 319.884 518.849 332.827 519.404 343.108C533.821 350.749 548.192 358.477 562.515 366.292C568.559 369.602 583.398 378.019 589.316 380.409ZM421.118 383.082L478.513 218.272C481.476 210.048 484.332 201.786 487.081 193.487C487.918 190.93 491.873 179.342 491.565 177.539L490.834 176.819C485.946 182.218 479.005 193.126 474.7 199.51C468.47 208.667 462.162 217.772 455.778 226.823C425.722 270.018 395.919 314.7 365.446 357.484C370.328 360.268 377.918 363.788 383.18 366.09C393.499 370.851 410.758 379.337 421.118 383.082ZM506.52 877.747C506.51 857.262 506.901 834.495 506.217 814.193C483.755 805.408 457.685 797.847 434.5 789.809C419.607 784.646 398.358 776.407 384.019 772.793C397.721 786.539 410.796 796.299 425.087 808.808L475.391 852.519C479.219 855.812 503.503 877.627 506.52 877.747ZM658.069 753.415C643.506 738.105 627.041 724.462 612.115 709.454C609.841 707.167 600.295 697.547 598.292 696.5C589.153 700.873 579.266 705.984 570.409 710.915C553.805 720.16 535.398 727.706 518.933 736.936L519.262 779.211C519.319 785.391 519.055 794.215 519.474 800.032C531.838 797.05 552.491 789.461 564.985 785.176C585.729 777.986 606.521 770.934 627.359 764.021C636.984 760.787 648.803 757.173 658.069 753.415ZM519.29 813.51C518.737 826.238 519.251 840.31 519.098 853.149C519.04 858.104 518.897 873.381 519.692 877.282C526.371 873.185 536.395 863.987 542.712 858.504L578.418 827.447C596.321 811.943 614.417 796.465 632.36 780.991C634.864 778.831 637.951 775.986 640.174 773.539L639.979 773.129L564.656 798.297C550.096 803.277 534.02 809.271 519.29 813.51ZM532.827 174.381C533.213 178.743 537.906 192.055 539.463 196.727C544.796 212.699 550.259 228.628 555.852 244.512L592.552 351C596.112 361.153 599.673 372.975 603.355 382.79C612.754 379.075 631.203 370.136 640.645 365.333C646.89 362.475 652.55 359.84 658.629 356.659C655.486 351.521 651.695 346.632 648.261 341.651L626.949 310.505L573.428 232.549C565.779 221.461 557.977 210.055 550.216 199.05C546.635 193.972 536.399 177.96 532.827 174.381Z"/><path fill="#FED60C" d="M506.488 608.579C493.16 608.533 477.471 601.247 467.543 592.576C455.088 581.725 447.423 563.775 446.47 547.491C444.503 513.87 472.392 481.303 506.476 479.749L506.488 608.579Z"/><path fill="#EFECF0" fill-opacity="0.0078431377" d="M519.66 179.492C520.777 181.628 523.093 188.148 523.974 190.595C527.539 200.487 530.895 210.561 534.297 220.521L562.213 301.464L580.526 354.747C582.266 359.669 588.803 376.318 589.316 380.409C583.398 378.019 568.559 369.602 562.515 366.292C548.192 358.477 533.821 350.749 519.404 343.108C518.849 332.827 519.087 319.884 519.033 309.407C518.897 286.427 518.927 263.446 519.124 240.466L519.27 204.443C519.255 196.734 518.902 186.996 519.66 179.492Z"/><path fill="#FED60C" d="M519.354 479.755C524.054 480.6 528.823 481.403 533.355 482.928C565.092 493.607 582.635 524.618 576.551 557.152C573.577 573.545 564.115 588.044 550.307 597.367C540.037 604.331 531.387 606.929 519.418 609.283C518.705 596.862 519.333 578.105 519.333 565.133L519.354 479.755Z"/><path fill="#070707" fill-opacity="0.96078432" d="M499.38 195.602C499.305 194.622 499.343 194.164 499.076 193.253L499.019 193.29L498.972 193.263C498.353 191.157 499.788 187.097 502.802 186.551C502.031 189.251 500.551 193.049 499.38 195.602Z"/></svg>