<?xml version="1.0" encoding="utf-8" ?><svg xmlns="http://www.w3.org/2000/svg" xmlns:xlink="http://www.w3.org/1999/xlink" width="1024" height="1024" viewBox="0 0 1024 1024"><path fill="#303259" d="M275.392 402.128C279.127 401.761 282.562 401.518 286.221 402.526C290.106 403.613 293.554 405.886 296.083 409.029C299.998 413.949 304.804 425.525 307.513 431.61C312.841 443.562 318.346 455.454 323.944 467.282C326.861 473.445 329.332 480.795 332.771 486.563C333.893 485.49 335.017 484.38 336.218 483.395C340.845 479.6 346.57 477.723 352.539 478.333C356.601 478.748 360.046 480.095 363.445 482.306C379.562 492.79 412.066 531.888 424.839 548.081C427.844 549.143 434.576 552.743 437.691 554.429C456.203 564.451 471.36 574.887 482.402 593.442C507.266 635.225 500.939 677.522 501.669 723.657C501.836 734.229 502.157 748.901 500.956 759.437C500.772 761.047 499.299 761.938 497.95 762.551C494.076 762.42 491.124 758.902 491.201 755.432C491.366 747.918 491.488 739.987 491.492 732.488L491.536 686.077C491.548 672.724 491.961 660.303 490.176 646.94C487.06 623.06 477.562 598.491 459.82 581.648C451.72 574.645 440.089 566.17 430.106 561.887C415.667 555.691 411.182 547.594 401.185 535.776C392.79 525.651 384.038 515.827 374.945 506.323C370.536 501.744 366.031 496.986 360.963 493.134C357.777 490.712 353.032 487.683 348.862 488.451C344.928 489.175 340.853 492.865 338.703 496.09C337.47 497.941 336.398 500.504 337.274 502.723C339.465 508.274 348.598 516.802 352.669 521.596C358.1 527.993 407.953 586.199 408.067 589.664C408.107 590.866 407.458 592.235 406.62 593.061C405.4 594.264 403.701 594.734 402.025 594.46C400.793 594.258 399.916 593.645 399.018 592.817C394.322 588.487 390.224 582.786 386.155 577.857L363.707 550.563C353.943 539.657 344.826 527.33 334.966 516.407C333.086 514.323 330.895 511.283 329.495 508.839C327.452 505.273 327.577 500.366 325.821 496.605C323.063 490.456 320.199 484.361 317.41 478.228L300.597 441.277C298.057 435.769 290.731 418.523 287.664 414.351C281.852 411.543 273.991 410.587 270.652 417.738C269.654 419.874 271.757 428.034 272.412 430.697C278.934 457.21 287.264 483.38 294.279 509.729C298.395 525.561 302.645 541.358 307.029 557.118C309.319 565.621 311.708 576.389 314.837 584.486C324.577 609.682 350.955 628.416 374.293 639.795C397.784 651.25 413.92 659.511 424.995 684.491C436.319 710.031 429.667 736.143 423.38 762.002C421.317 766.39 413.092 764.701 413.824 759.692C416.953 738.281 425.215 718.134 418.722 696.183C414.384 681.106 401.473 664.293 387.077 657.325C366.415 647.324 344.804 637.241 328.067 620.935C319.064 612.163 308.604 598.651 304.727 586.545C301.756 577.268 299.339 567.101 296.677 557.536L276.262 484.073C272.49 470.784 268.807 457.469 265.213 444.13C260.875 427.988 252.594 408.55 275.392 402.128Z"/><path fill="#303259" d="M739.646 402.136C746.131 401.521 751.714 401.579 757.336 405.617C761.344 408.064 766.27 417.65 765.412 422.358C763.195 434.524 759.029 447.707 755.667 459.685L732.313 542.606C729.684 551.944 727.127 561.303 724.643 570.68C722.876 577.316 721.24 585.203 718.395 591.433C707.805 614.617 685.306 632.748 663.396 644.865C649.605 652.491 636.261 656.464 624.384 667.326C602.97 686.91 600.536 713.731 607.256 740.528C608.57 745.995 610.835 754.765 611.293 760.415C611.379 761.476 610.315 762.993 609.363 763.655C608.233 764.429 606.846 764.732 605.495 764.501C600.954 763.737 600.334 755.894 599.408 752.086C595.65 736.648 592.292 721.542 594.212 705.529C595.367 696.148 598.26 687.064 602.742 678.742C615.456 655.056 631.706 649.636 653.3 638.468C662.941 633.587 672.077 627.768 680.576 621.094C694.522 609.987 706.8 597.133 711.658 579.552C712.937 574.927 714.219 570.295 715.508 565.673L725.83 528.768L744.563 461.738C747.568 451.073 754.139 429.918 755.309 419.65C753.398 414.876 749.926 411.357 744.435 411.7C734.303 412.331 730.373 428.912 726.411 436.531C723.437 442.249 720.877 448.995 718.173 454.766C711.65 468.685 705.287 482.562 698.938 496.543C697.435 500.49 698.412 505.96 695.941 509.549C692.749 514.183 688.504 518.73 684.813 523C678.54 530.202 672.388 537.509 666.359 544.917C661.669 550.474 627.621 592.297 624.604 593.967C623.292 594.68 621.73 594.771 620.344 594.216C617.644 593.162 615.972 589.714 617.733 587.343C622.152 581.393 627.289 575.587 632.047 569.898L672.76 521.185C677.308 515.703 682.941 510.521 686.873 504.596C688.11 502.732 688.301 500.659 687.805 498.504C686.982 494.93 684.208 491.838 681.063 490.082C678.007 488.375 674.352 488.092 671.021 489.122C658.755 492.916 632.452 524.941 623.945 535.362C618.87 541.579 613.807 549.072 607.845 554.432C603.744 558.118 598.126 560.214 593.289 562.795C579.243 570.292 565.531 579.239 555.682 591.971C544.103 606.939 536.245 627.311 533.838 646.101C533.192 651.138 532.6 656.257 532.482 661.336C531.957 684.072 532.421 706.959 532.459 729.712C532.473 737.799 532.936 746.043 532.539 754.111C532.448 755.974 532.37 758.409 531.379 760.043C530.688 761.176 529.565 761.979 528.269 762.266C524.575 763.093 522.382 759.994 522.397 756.727C522.535 726.027 522.1 695.255 522.291 664.557C522.469 635.996 530.956 605.936 549.406 583.715C559.528 571.524 573.664 562.345 587.255 554.43C590.472 552.373 598.532 549.928 600.854 547.242C616.811 528.655 631.255 509.111 649.057 492.119C661.938 479.824 677.128 470.226 692.288 486.437C695.622 480.286 698.216 473.418 701.32 467.061C710.342 448.587 717.651 428.97 727.659 411.021C730.56 405.819 734.324 404.028 739.646 402.136Z"/><path fill="#FAB221" d="M511.34 378.217C525.223 377.715 536.892 388.548 537.42 402.431C537.949 416.314 527.137 428.003 513.256 428.557C499.337 429.113 487.611 418.266 487.081 404.347C486.551 390.428 497.419 378.721 511.34 378.217Z"/><path fill="#303259" d="M509.731 443.044C512.849 442.955 516.889 443.368 517.1 447.455C517.657 458.221 517.44 469.123 517.473 479.914C517.533 499.649 517.512 519.395 517.496 539.129C517.492 543.217 517.199 543.625 514.327 546.44C510.168 546.648 507.648 546.429 507.571 541.502C507.097 511.093 507.505 480.648 507.087 450.231C507.04 446.857 507.347 445.413 509.731 443.044Z"/><path fill="#303259" d="M512.119 259.602C515.723 260.561 517.489 261.647 517.455 265.806C517.208 296.172 518.15 326.778 517.041 357.059C516.997 358.255 513.503 360.052 512.599 360.475C512.152 360.4 511.703 360.332 511.262 360.229C509.72 359.87 508.567 359.216 507.844 357.754C506.963 355.975 507.106 352.989 507.049 351.038C506.858 344.521 506.716 264.535 507.772 262.451C508.763 260.498 510.175 260.165 512.119 259.602Z"/><path fill="#303259" d="M546.148 425.922C548.023 425.732 549.463 426.108 550.97 427.254C560.226 434.287 569.019 441.944 578.11 449.198C585.9 455.306 593.638 461.479 601.325 467.716C603.574 469.523 605.899 471.317 608.094 473.188C612.861 477.247 619.67 481.123 611.588 486.444C610.335 486.339 608.097 486.172 607.049 485.301C594.984 476.013 583.134 466.494 571.383 456.808C564.738 451.331 557.967 445.9 551.216 440.546C548.578 438.453 544.059 435.231 542.159 432.643C541.418 428.831 543.042 427.692 546.148 425.922Z"/><path fill="#303259" d="M476.197 425.927C480.035 425.689 483.664 428.048 482.476 432.394C482.129 433.664 480.377 435.309 479.351 436.173C466.698 446.832 453.723 457.127 440.895 467.574C436.556 471.073 420.696 484.357 416.942 486.256C410.391 485.907 408.467 481.12 413.373 476.659C417.212 473.167 421.452 469.936 425.483 466.645C434.653 459.195 443.863 451.793 453.111 444.441C458.768 439.92 471.26 429.114 476.197 425.927Z"/><path fill="#303259" d="M415.608 320.981C416.756 320.865 418.891 320.728 419.853 321.466C424.625 325.128 429.167 329.26 433.868 333.016L466.793 359.552C471.899 363.716 477.186 367.871 482.065 372.285C485.347 375.255 483.176 378.822 480.375 380.931C474.75 380.181 466.861 372.867 462.152 369.064C446.165 356.157 430.148 343.075 414.272 330.036C410.729 327.127 412.431 323.482 415.608 320.981Z"/><path fill="#303259" d="M606.284 321.013C612.6 320.657 615.476 326.323 610.615 330.344C593.615 344.406 576.282 358.085 559.329 372.209C556.027 374.96 552.534 378.056 548.913 380.307C543.017 380.683 539.15 376.007 543.681 372C558.929 358.517 575.482 346.44 591.036 333.291C595.881 329.195 601.083 324.564 606.284 321.013Z"/><path fill="#FAB221" d="M653.12 311.623C660.507 310.365 667.521 315.317 668.809 322.7C670.096 330.082 665.172 337.116 657.795 338.433C650.376 339.757 643.294 334.799 641.999 327.375C640.705 319.951 645.691 312.888 653.12 311.623Z"/><path fill="#FAB221" d="M363.831 391.135C370.356 389.389 377.064 393.249 378.834 399.768C380.603 406.287 376.767 413.009 370.254 414.801C363.709 416.602 356.946 412.743 355.168 406.191C353.39 399.64 357.273 392.89 363.831 391.135Z"/><path fill="#FAB221" d="M435.325 280.278C439.33 278.943 443.655 281.125 444.963 285.138C446.271 289.152 444.061 293.463 440.039 294.744C436.054 296.012 431.793 293.828 430.497 289.852C429.202 285.876 431.358 281.6 435.325 280.278Z"/><path fill="#FAB221" d="M647.684 418.276C651.467 416.833 655.709 418.681 657.229 422.433C658.75 426.186 656.99 430.465 653.27 432.063C650.794 433.126 647.937 432.767 645.801 431.125C643.664 429.483 642.583 426.814 642.974 424.148C643.364 421.482 645.166 419.236 647.684 418.276Z"/></svg>