<?xml version="1.0" encoding="utf-8" ?><svg xmlns="http://www.w3.org/2000/svg" xmlns:xlink="http://www.w3.org/1999/xlink" width="1024" height="1024" viewBox="0 0 1024 1024"><path fill="#FE5E02" d="M380.043 284.706C383.71 284.191 394.23 284.33 398.197 284.47C427.808 285.399 456.916 292.377 483.73 304.975C488.917 307.385 507.067 317.798 511.366 318.429C515.568 319.045 530.625 309.071 535.904 306.534C563.668 293.187 590.58 286.898 621.236 285.237C679.551 282.4 736.655 302.537 780.29 341.328C832.405 388.351 859.043 442.174 863.382 512.907C864.42 529.837 861.376 550.096 858.483 567.028C847.102 632.338 822.048 694.506 784.964 749.457C752.517 798.331 698.682 861.504 635.495 864.531C610.871 866.28 588.67 860.388 567.298 848.254C548.973 837.849 534.594 824.475 512.571 824.047C489.975 823.607 480.42 834.893 461.975 845.258C443.287 855.76 426.145 863.029 404.499 864.837C367.618 867.917 330.84 850.981 303.319 826.337C223.454 754.824 168.169 637.263 159.074 530.68C158.293 521.529 159.089 509.541 159.877 500.473C163.662 459.266 178.153 419.764 201.912 385.884C206.53 379.3 215.31 368.791 220.771 362.525C261.555 316.64 318.782 288.679 380.043 284.706ZM520.876 686.076C539.693 685.232 557.651 681.226 575.538 675.512C633.645 656.947 682.877 620.352 723.741 575.709C727.72 571.363 730.848 566.471 730.466 560.325C729.731 548.512 692.979 516.491 682.899 508.083C634.735 467.907 567.189 435.522 503.036 439.643C502.789 439.659 502.542 439.69 502.295 439.714C444.05 442.859 385.892 470.287 341.198 506.849C325.794 519.451 313.226 533.861 299.865 548.352C285.162 564.298 296.874 573.038 307.889 584.672C359.789 639.49 442.674 690.999 520.876 686.076ZM236.378 498.282C251.034 493.767 250.137 484.867 254.133 472.304C267.681 429.705 301.912 393.514 344.798 379.492C350.394 377.684 356.074 376.146 361.818 374.884C371.885 372.772 383.624 373.144 388.817 362.802C390.794 358.937 391.059 354.421 389.55 350.35C387.883 345.792 384.424 342.113 379.976 340.17C377.685 339.177 374.772 338.911 372.304 339.211C357.33 340.676 347.387 343.787 333.589 348.397C279.108 366.603 236.565 412.387 220.557 467.336C219.128 472.24 217.091 478.581 217.565 483.743C217.989 488.083 220.153 492.066 223.562 494.784C227.288 497.762 231.69 498.705 236.378 498.282Z"/><path fill="#120A63" d="M502.295 439.714C502.542 439.69 502.789 439.659 503.036 439.643C567.189 435.522 634.735 467.907 682.899 508.083C692.979 516.491 729.731 548.512 730.466 560.325C730.848 566.471 727.72 571.363 723.741 575.709C682.877 620.352 633.645 656.947 575.538 675.512C557.651 681.226 539.693 685.232 520.876 686.076C442.674 690.999 359.789 639.49 307.889 584.672C296.874 573.038 285.162 564.298 299.865 548.352C313.226 533.861 325.794 519.451 341.198 506.849C385.892 470.287 444.05 442.859 502.295 439.714ZM462.366 644.372C463.664 644.579 464.831 644.806 466.123 645.066C465.416 644.231 465.292 643.9 464.376 643.419C458.463 639.054 452.477 634.99 447.088 629.869C414.154 598.578 409.197 545.066 436.578 508.635C447.274 494.404 458.121 485.752 473.555 477.383C433.337 488.441 397.226 504.206 364.903 530.852C353.381 540.35 343.063 551.071 332.592 561.681C367.584 599.536 412.282 630.524 462.366 644.372ZM556.567 645.194C565.597 643.295 573.837 640.116 582.398 636.752C623.9 620.29 661.071 594.524 691.05 561.439C657.961 523.613 605.797 491.971 557.124 479.579C551.789 477.843 552.658 478.524 556.539 481.013C591.499 502.467 610.575 538.077 603.496 579.297C599.918 599.024 590.068 617.069 575.412 630.75C569.238 636.431 563.402 640.403 556.567 645.194ZM507.954 505.239C475.863 507.443 451.618 535.218 453.769 567.313C455.92 599.408 483.654 623.699 515.753 621.601C547.926 619.498 572.287 591.684 570.131 559.514C567.975 527.344 540.121 503.03 507.954 505.239Z"/><path fill="#120A63" d="M492.472 520.841C499.509 519.356 506.802 521.768 511.565 527.158C516.327 532.548 517.824 540.083 515.483 546.883C513.142 553.684 507.325 558.701 500.254 560.017C489.502 562.019 479.139 555.001 477.008 544.274C474.878 533.547 481.771 523.101 492.472 520.841Z"/><path fill="#ADADD7" d="M466.123 645.066C467.223 644.103 470.015 646.288 471.223 646.967C469.552 646.933 467.054 646.576 466.123 645.066Z"/><path fill="#FAF9FC" fill-opacity="0.023529412" d="M556.539 481.013C552.658 478.524 551.789 477.843 557.124 479.579L556.539 481.013Z"/><path fill="#FAF9FC" fill-opacity="0.043137256" d="M464.376 643.419C465.292 643.9 465.416 644.231 466.123 645.066C464.831 644.806 463.664 644.579 462.366 644.372L464.376 643.419Z"/><path fill="#120A63" d="M675.847 80.7069C676.465 80.6669 677.084 80.632 677.703 80.6022C701.645 79.4706 697.416 101.791 694.784 117.837C681.518 198.709 610.423 263.157 527.969 265.676C515.682 265.98 506.695 267.3 505.827 251.33C503.648 211.224 520.679 172.382 546.81 142.695C581.291 103.524 623.973 83.7332 675.847 80.7069Z"/></svg>