<?xml version="1.0" encoding="utf-8" ?><svg xmlns="http://www.w3.org/2000/svg" xmlns:xlink="http://www.w3.org/1999/xlink" width="1024" height="1024" viewBox="0 0 1024 1024"><path fill="#F9D20E" d="M511.861 435.151C513.238 435.662 514.325 436.278 514.505 437.856C515.939 450.433 517.095 458.932 523.133 470.495C535.81 494.768 559.26 507.602 585.918 510.497C587.036 510.619 587.299 511.268 587.681 512.052C585.983 513.789 577.407 514.386 574.417 515.027C540.645 522.264 518.797 546.438 514.267 580.584C513.796 584.131 514.043 586.567 511.996 589.662C511.317 589.282 510.504 588.647 510.391 587.804C508.633 574.757 506.958 563.08 500.274 551.414C487.383 528.913 463.794 516.268 438.453 513.773C437.419 513.672 437.21 512.984 436.839 512.268C437.064 511.872 437.29 511.477 437.515 511.081C441.605 509.968 448.891 509.158 452.788 508.178C458.806 506.664 465.147 504.685 470.459 502.113C490.617 492.353 503.394 475.66 508.652 453.941C510.043 448.195 510.109 440.08 511.861 435.151Z"/><path fill="#272628" d="M785.472 396.509C803.949 388.555 824.418 378.229 842.85 369.525L928.199 329.278C938.648 324.225 948.866 318.642 959.136 313.233C965.141 310.071 971.179 306.521 977.58 304.225C992.867 298.741 1008.83 304.234 1017.73 317.718C1019.45 320.324 1021.77 327.504 1024 328.555L1024 436.842C1023.54 437.124 1022.59 437.635 1022.39 438.177C1019.93 444.98 1017.91 452.119 1014.23 458.402C1010.61 464.588 1005.18 471.784 999.325 476.069C988.845 483.743 976.013 488.99 964.202 494.425C951.036 500.531 937.831 506.55 924.587 512.483C921.332 513.936 903.635 521.815 902.386 523.587C895.147 533.852 886.796 554.709 881.584 566.305C859.135 615.86 837.656 665.848 817.157 716.24C811.599 729.845 806.147 743.503 800.754 757.174C799.071 761.439 798.356 766.613 796.671 770.455C794.967 774.297 792.106 777.512 788.488 779.651C782.984 782.975 776.387 783.721 770.197 782.125C764.419 780.644 759.476 776.907 756.475 771.752C748.895 758.592 757.67 740.153 761.721 726.814C768.152 706.344 774.413 685.821 780.503 665.246C781.425 662.103 787.455 643.829 786.588 642.378C783.081 643.471 775.99 660.477 773.713 664.623C756.21 696.346 741.854 729.755 725.606 762.11C719.635 774 714.524 792.459 702.073 798.303C695.599 801.394 688.136 801.676 681.447 799.083C674.809 796.49 669.489 791.342 666.68 784.792C664.387 779.443 663.598 771.418 665.532 765.972C670.299 752.554 679.06 737.199 685.571 724.311C696.44 702.759 707.119 681.112 717.607 659.373C724.267 645.601 730.188 634.596 735.799 620.283C729.215 627.277 717.153 647.375 710.899 656.839C689.387 688.898 667.666 720.816 645.738 752.592C640.479 760.12 635.532 767.851 630.302 775.389C624.696 783.469 619.235 792.721 609.159 795.507C601.993 797.419 594.357 796.335 588.006 792.502C582.259 789.019 577.73 782.847 576.314 776.256C575.055 770.26 575.683 764.02 578.112 758.395C580.429 753.158 585.427 746.366 588.705 741.453L604.816 717.113L651.907 646.366C662.825 630.277 675.254 613.031 685.571 596.649C680.029 599.768 676.009 603.802 671.064 607.704C661.91 614.928 653.256 622.563 644.371 630.07L580.166 683.376C565.245 695.713 545.76 720.911 523.79 695.63C518.562 689.614 517.113 675.964 521.834 669.258C530.58 656.837 544.407 645.764 555.738 635.174L634.574 560.315C641.425 553.754 648.342 547.262 655.324 540.841C659.993 536.505 665.773 531.391 669.884 526.654C674.286 521.66 677.637 515.831 679.736 509.514C684.044 496.296 681.832 481.813 671.302 472.115C657.923 460.095 644.041 464.921 628.745 467.426C613.929 469.853 589.304 479.895 575.284 475.341C552.101 467.768 551.418 433.185 574.572 425.366C596.448 417.979 619.353 413.043 641.447 406.326C658.17 401.241 674.602 395.938 691.265 390.772C698.99 388.377 707.113 385.495 714.903 383.6C721.402 382.011 728.086 381.304 734.774 381.499C747.436 381.749 759.915 384.569 771.455 389.788C775.947 391.833 780.431 394.536 784.95 396.31L785.472 396.509ZM784.546 399.87C777.269 396.485 770.753 392.913 763.416 390.148C737.451 380.363 715.862 385.21 690.891 394.277C677.305 399.209 661.307 403.191 647.463 407.936C623.715 415.038 599.556 420.715 575.917 428.195C569.791 430.134 564.68 435.731 562.002 441.421C556.744 452.77 563.171 467.228 574.643 471.803C583.683 475.408 592.063 472.818 601.094 470.695C609.85 468.59 618.623 466.557 627.412 464.593C643.271 461.161 657.685 457.427 671.742 468.599C685.189 479.285 687.548 497.316 681.594 513.02C679.236 519.099 675.805 524.706 671.465 529.572C662.3 540.041 646.074 553.484 635.708 563.325L550.109 644.74C542.153 652.46 530.528 661.802 524.546 670.858C513.297 687.887 536.141 710.266 553.351 701.447C563.217 696.392 573.717 683.529 583.134 676.885C598.77 663.553 615.476 650.766 630.917 637.557L663.396 610.052C667.757 606.367 681.215 593.309 686.419 593.888C687.442 594.735 687.816 594.728 687.879 596.376C687.949 598.202 686.269 601.493 685.264 603.006C674.918 618.569 664.011 633.987 653.524 649.439C635.632 675.897 617.996 702.527 600.618 729.325C595.123 737.673 581.748 755.468 579.024 764.284C573.595 781.857 592.505 798.642 611.019 791.756C619.952 787.157 622.751 780.965 628.187 772.938C633.09 765.624 638.06 758.356 643.096 751.133C665.468 719.052 689.204 683.993 710.79 651.397C714.847 645.237 718.854 639.043 722.812 632.818C725.463 628.643 730.82 618.122 736.464 618.328C739.454 620.124 738.39 623.269 737.177 625.891C731.171 638.879 724.649 651.809 718.332 664.638L683.071 736.232C675.075 752.354 656.122 777.761 677.072 793.365C687.117 800.847 704.33 799.38 710.05 787.289C734.07 739.54 755.418 690.165 781.291 643.34C782.52 641.114 785.966 638.155 788.682 639.536C790.154 641.982 789.673 644.923 788.912 647.56C785.414 660.027 781.246 672.289 777.481 684.677C774.16 695.605 770.617 706.604 767.573 717.621C764.027 730.453 758.046 744.534 756.092 757.51C754.259 774.428 772.448 785.069 786.861 777.343C788.824 776.291 793.173 772.004 793.756 770.076C799.134 752.298 806.112 735.239 813.187 718.087C833.277 668.202 854.443 618.756 876.673 569.787L890.955 538.119C893.074 533.432 895.059 527.581 897.955 523.391C902.748 516.458 979.394 485.677 994.222 475.672C999.351 472.212 1003.74 468.155 1007.5 463.232C1013.08 455.915 1016.75 447.704 1018.77 438.747C1021.23 427.788 1020.73 416.447 1020.74 405.288L1020.81 371.802C1020.84 356.896 1023.37 331.872 1015.56 319.494C1011.22 312.56 1004.25 307.681 996.253 305.974C991.889 305.033 988.166 305.14 983.777 305.658C973.704 308.383 962.467 315.071 953.055 320.035C944.43 324.566 935.732 328.954 926.963 333.198C891.419 350.297 855.756 367.148 819.977 383.749C813.309 386.827 790.37 398.531 784.546 399.87Z"/><path fill="#272628" d="M237.784 380.175C253.759 349.642 269.57 320.527 284.952 289.489L301.894 254.697C307.466 243.227 312.655 228.439 325.833 224.21C332.556 222.005 339.882 222.59 346.169 225.835C355.859 230.861 361.798 243.012 359.656 253.775C358.425 258.601 356.358 263.187 354.227 267.672C339.658 298.321 324.29 328.566 308.708 358.706C302.779 370.174 292.296 386.911 289.127 399.074L289.654 398.552C293.789 394.401 299.415 385.699 302.902 380.61L322.272 352.115C340.25 325.52 359.046 298.86 376.742 272.214C381.911 264.339 387.209 256.549 392.634 248.847C399.989 238.223 406.218 227.052 420.978 226.709C428 226.601 434.773 229.315 439.778 234.242C447.976 242.449 450.125 255.551 444.423 265.562C441.263 271.109 437.979 276.097 434.473 281.432L418.11 306.258L362.933 390.247C358.427 397.087 353.814 403.855 349.097 410.55C345.988 414.969 341.788 420.517 339.086 425.068C343.456 422.017 347.581 418.699 351.759 415.398C389.007 385.965 424.762 354.739 461.536 324.729C468.708 318.783 475.362 315.002 485.077 316.803C495.2 318.68 503.442 326.08 505.556 336.244C509.149 353.518 492.366 365.583 481.383 376.016L449.107 406.527C427.587 426.624 406.694 447.686 385.295 467.945C372.901 479.679 359.423 491.425 349.004 504.92C341.764 516.921 339.049 533.71 347.265 545.913C362.359 568.329 389.599 557.509 410.812 552.851C429.118 548.645 448.447 539.715 462.27 558.603C471.246 571.003 466.87 587.581 454.453 595.632C452.805 596.701 448.466 598.115 446.585 598.71C430.025 603.949 413.159 608.266 396.513 613.186L348.178 627.697C337.529 630.962 326.158 634.725 315.484 637.544C310.702 638.817 305.833 639.736 300.917 640.294C294.673 641.032 286.022 640.384 279.729 639.99C265.109 639.074 252.852 633.695 239.89 627.308L239.2 627.558C233.178 629.768 225.316 633.646 219.371 636.372C208.781 641.133 198.244 646.011 187.763 651.004L84.0091 700.943C75.2234 705.076 66.706 709.884 57.9229 713.951C48.0937 718.502 40.1074 722.888 28.9957 720.878C12.6097 717.913 4.26666 707.14 0 691.861L0 599.168C1.85556 590.308 2.96134 582.653 6.18218 574.182C14.8189 551.467 34.6032 542.813 55.166 533.424C71.0735 526.16 87.509 518.698 103.538 511.536C109.143 508.933 118.772 505.837 123.226 502.241C127.286 498.963 131.771 485.948 134.062 480.811L155.895 430.955C172.702 392.808 188.922 354.406 204.552 315.762C210.411 301.331 216.39 286.983 222.204 272.52C226.823 261.029 226.964 247.004 239.996 241.525C250.515 237.103 262.393 242.111 268.136 251.637C273.055 259.796 271.347 267.421 268.876 275.938C262.239 298.925 254.524 321.7 247.63 344.593C244.399 355.323 239.925 369.258 237.784 380.175Z"/><path fill="#283273" d="M329.978 226.056C345.853 224.851 358.277 234.025 356.754 251.284C355.653 259.165 351.414 266.879 347.977 274.027C329.169 313.136 309.627 351.759 289.001 389.938C287.246 393.188 284.775 399.211 288.083 401.992C291.398 402.118 293.244 398.943 295.128 396.458C303.58 385.311 311.245 373.537 319.046 361.936L375.111 279.927L393.032 253.528C397.955 246.215 403.691 235.647 411.798 231.965C422.839 226.952 437.38 231.565 442.168 243.239C448.244 258.055 440.04 267.87 432.325 279.669C427.616 286.878 422.55 294.095 417.799 301.376C397.235 333.098 376.418 364.656 355.352 396.047C349.551 404.577 341.141 415.966 336.081 425.039C335.523 426.038 336.413 427.46 336.901 428.305C338.198 428.818 339.353 428.569 340.498 427.691C375.037 401.22 408.444 371.933 442.159 344.55C447.433 340.3 452.668 336 457.861 331.652C464.013 326.469 470.298 319.79 478.792 319.296C495.221 318.403 507.709 332.07 501.767 348.456C498.365 357.837 489.044 364.915 481.886 371.737L454.793 397.453C430.501 420.07 406.53 443.03 382.887 466.326C372.749 476.221 362.225 485.678 352.467 495.981C343.194 505.772 339.241 517.155 339.75 530.62C340.081 539.375 343.492 548.224 350.183 554.192C364.309 566.792 385.602 561.644 402.255 557.814C410.213 555.938 418.181 554.107 426.159 552.32C429.639 551.546 435.934 549.781 439.197 549.726C461.917 549.337 471.98 574.509 456.327 590.368L456.133 590.516C453.112 592.852 450.22 594.371 446.561 595.456C417.325 604.134 388.157 612.15 359.092 621.474C338.79 627.986 316.139 636.371 294.869 638.315C283.462 639.358 264.903 634.841 254.053 630.932C250.13 629.307 243.811 626.026 239.633 624.014C225.396 629.582 211.505 637.539 197.537 643.617C164.557 657.968 132.794 673.82 100.588 689.783L68.0267 705.714C50.5093 714.295 31.1506 726.965 13.1717 710.718C5.04624 703.376 3.26875 694.615 3.26235 683.971C3.24999 663.403 3.41678 642.717 3.38131 622.136C3.40981 607.092 2.47431 593.827 7.21811 579.314C10.1621 569.931 18.3475 557.618 26.8523 552.034C50.5602 536.469 79.4082 527.024 104.761 514.299C112.689 510.32 124.774 507.818 128.965 499.68C132.102 493.589 134.886 486.858 137.612 480.645L155.178 439.757C160.181 428.135 165.723 416.64 170.716 405.008C186.201 368.386 201.456 331.666 216.48 294.852C222.005 281.252 227.407 268.108 231.231 253.891C232.912 247.642 242.23 242.601 249.11 242.775C254.442 242.949 259.465 245.319 262.989 249.324C272.866 260.406 266.604 271.912 263.497 283.576C255.579 313.294 245.197 342.175 236.804 371.735C235.983 374.623 233.528 381.878 235.777 384.13C237.613 384.36 240.043 383.212 240.805 381.633C246.089 370.682 252.478 359.432 257.987 348.651C271.094 323.272 284.023 297.802 296.775 272.243C303.08 259.767 308.255 246.822 315.737 235.041C319.252 229.506 323.98 227.656 329.978 226.056Z"/></svg>