<?xml version="1.0" encoding="utf-8" ?><svg xmlns="http://www.w3.org/2000/svg" xmlns:xlink="http://www.w3.org/1999/xlink" width="1024" height="1024" viewBox="0 0 1024 1024"><path fill="#416DFE" d="M665.882 305.35C671.332 302.326 695.889 272.459 701.269 265.822C698.79 278.976 695.361 291.921 692.253 304.933C691.789 306.876 689.755 314.135 689.756 315.689C770.178 352.12 841.58 405.832 898.878 473.002C907.217 482.804 919.344 496.425 924.887 508.36C928.521 516.184 917.787 528.521 912.93 534.804C903.275 547.524 892.873 559.658 881.778 571.143C815.813 640.107 738.115 695.792 646.552 725.073C545.658 757.338 459.58 752.295 360.148 718.666L359.064 718.29C354.858 721.504 330.177 750.723 326.247 756.338L324.237 756.104C326.686 740.974 332.831 723.313 336.018 708.491L335.388 707.922C328.333 705.192 321.266 701.516 314.368 698.331C277.517 681.233 243.695 657.875 211.601 633.127C201.296 625.18 190.517 615.544 180.558 607.086C172.705 600.417 164.701 591.482 157.23 584.227C146.248 572.794 133.623 561.245 124.138 548.51C117.716 539.889 95.5791 518.415 101.286 507.441C107.794 494.927 119.032 481.808 128.164 471.118C178.592 412.448 239.878 364.071 308.654 328.646C407.508 278.503 518.661 263.974 626.035 293.406C638.716 296.882 653.875 300.438 665.882 305.35ZM343.054 686.234C346.025 679.202 349.396 668.27 352.12 660.758C357.084 647.259 362.387 633.887 368.023 620.654C357.692 603.201 349.855 591.895 342.747 572.438C326.696 528.458 328.767 479.904 348.505 437.451C393.322 342.555 502.821 305.484 597.014 351.909C601.44 354.091 605.578 356.854 610.077 358.962L610.581 359.194C615.401 355.264 646.047 328.282 648.054 324.819C596.16 308.438 543.518 298.902 488.858 302.398C426.452 306.388 368.075 324.155 312.683 352.971C239.2 391.678 175.188 446.159 125.234 512.511C131.704 521.645 139.001 530.749 146.354 539.182C193.495 593.244 250.422 639.793 314.262 672.728C323.541 677.515 333.292 682.527 343.054 686.234ZM540.607 574.865C543.326 573.052 545.626 571.167 548.228 569.252C554.471 564.445 564.718 555.073 569.93 549.099C568.529 546.764 565.62 549.026 564.644 550.476C564.695 551.096 564.756 551.155 564.16 551.463C564.084 551.9 564.558 551.895 564.967 552.259C565.046 552.937 560.598 556.636 559.806 557.583C559.094 558.435 557.564 559.377 556.852 560.35C555.006 561.171 553.364 563.468 551.699 563.756C550.448 563.972 550.991 561.76 550.821 561.296C551.224 560.675 551.516 560.074 551.798 559.382L551.903 559.131C561.183 550.496 572.685 539.42 580.054 528.983C614.303 480.475 644.873 424.194 666.009 368.685C676.035 341.627 684.574 314.041 691.588 286.051C650.757 331.566 607.08 372.91 557.401 408.827C533 426.468 504.768 439.494 481.188 458.329C429.431 500.561 381.475 596.063 358.54 658.572C351.594 677.411 345.354 696.503 339.835 715.808C337.732 722.947 335.905 730.781 333.796 737.619C350.722 719.976 366.261 701.19 384.132 684.403C389.035 679.709 393.734 674.589 398.759 670.034C435.832 636.432 477.091 606.879 520.698 582.355C525.802 579.485 536.053 570.923 540.001 569.341C542.743 568.367 548.927 562.617 549.323 562.698C549.522 562.999 549.448 563.383 549.35 563.701C549.059 564.64 550.029 564.857 550.188 565.267C550.097 565.881 549.254 566.495 548.783 566.949C547.743 566.834 547.712 566.859 546.843 566.405C543.582 566.733 543.748 571.201 543.325 571.819C542.805 572.071 542.915 571.418 542.23 572.393C541.819 572.343 542.02 572.427 541.674 572.054C541.706 571.418 542.356 570.992 542.346 570.375C541.794 569.546 536.567 572.022 540.607 574.865ZM531.975 581.083C530.068 577.268 523.738 580.733 528.513 583.378C529.868 582.571 530.68 582.013 531.975 581.083ZM900.111 512.822C894.568 504.497 882.611 490.228 875.965 482.548C830.26 430.147 775.315 386.592 713.866 354.054C706.73 350.338 688.889 341.126 682.063 339.038C676.49 354.725 671.422 370.452 664.96 385.823C662.888 390.753 660.226 398.487 657.717 403.097C664.916 414.238 672.972 427.424 678.255 439.644C693.079 473.927 698.238 511.638 690.345 548.261C680.304 595.66 651.852 637.132 611.243 663.56C569.948 690.035 520.114 698.644 472.486 687.579C448.251 681.949 435.299 675.61 414.636 663.292C401.074 674.528 389.036 686.493 376.611 698.911C390.053 704.209 404.821 707.49 418.643 711.119C572.994 751.648 732.642 685.476 842.874 577.249C862.811 557.674 883.699 536.054 900.111 512.822ZM500.04 600.602C497.799 597.895 494.215 599.427 496.138 602.988C497.561 602.176 498.668 601.509 500.04 600.602ZM512.523 593.13C509.54 590.94 506.028 591.966 508.559 595.405C509.976 594.652 511.153 593.938 512.523 593.13ZM480.183 613.274C476.419 610.686 473.725 614.163 476.461 615.857C477.931 614.904 478.845 614.375 480.183 613.274ZM492.57 605.225C489.116 602.662 486.215 605.198 489.085 607.386C490.622 606.567 491.131 606.231 492.57 605.225ZM451.961 633.177C449.253 631.72 447.267 632.687 448.128 636.011C449.643 635.045 450.577 634.317 451.961 633.177Z"/><path d="M508.367 480.953C525.532 478.469 541.453 490.39 543.902 507.56C546.352 524.73 534.398 540.627 517.223 543.042C500.097 545.449 484.255 533.537 481.813 516.416C479.371 499.296 491.251 483.429 508.367 480.953Z"/><path fill="#262525" fill-opacity="0.9137255" d="M551.903 559.131L551.798 559.382C551.516 560.074 551.224 560.675 550.821 561.296C550.991 561.76 550.448 563.972 551.699 563.756C553.364 563.468 555.006 561.171 556.852 560.35C557.564 559.377 559.094 558.435 559.806 557.583C560.598 556.636 565.046 552.937 564.967 552.259C564.558 551.895 564.084 551.9 564.16 551.463C564.756 551.155 564.695 551.096 564.644 550.476C565.62 549.026 568.529 546.764 569.93 549.099C564.718 555.073 554.471 564.445 548.228 569.252L548.783 566.949C549.254 566.495 550.097 565.881 550.188 565.267C550.029 564.857 549.059 564.64 549.35 563.701C549.448 563.383 549.522 562.999 549.323 562.698C548.927 562.617 542.743 568.367 540.001 569.341C541.695 567.601 549.877 560.698 551.903 559.131Z"/><path fill="#262525" fill-opacity="0.67843139" d="M540.607 574.865C536.567 572.022 541.794 569.546 542.346 570.375C542.356 570.992 541.706 571.418 541.674 572.054C542.02 572.427 541.819 572.343 542.23 572.393C542.915 571.418 542.805 572.071 543.325 571.819C543.748 571.201 543.582 566.733 546.843 566.405C547.712 566.859 547.743 566.834 548.783 566.949L548.228 569.252C545.626 571.167 543.326 573.052 540.607 574.865Z"/><path fill="#262525" fill-opacity="0.79607844" d="M528.513 583.378C523.738 580.733 530.068 577.268 531.975 581.083C530.68 582.013 529.868 582.571 528.513 583.378Z"/><path fill="#262525" fill-opacity="0.90980393" d="M496.138 602.988C494.215 599.427 497.799 597.895 500.04 600.602C498.668 601.509 497.561 602.176 496.138 602.988Z"/><path fill="#262525" fill-opacity="0.87450981" d="M508.559 595.405C506.028 591.966 509.54 590.94 512.523 593.13C511.153 593.938 509.976 594.652 508.559 595.405Z"/><path fill="#262525" fill-opacity="0.89803922" d="M476.461 615.857C473.725 614.163 476.419 610.686 480.183 613.274C478.845 614.375 477.931 614.904 476.461 615.857Z"/><path fill="#262525" fill-opacity="0.90980393" d="M489.085 607.386C486.215 605.198 489.116 602.662 492.57 605.225C491.131 606.231 490.622 606.567 489.085 607.386Z"/><path fill="#262525" fill-opacity="0.9254902" d="M448.128 636.011C447.267 632.687 449.253 631.72 451.961 633.177C450.577 634.317 449.643 635.045 448.128 636.011Z"/><path fill="#416DFE" d="M569.93 549.099C572.218 547.313 580.776 537.041 582.792 534.397C613.799 493.716 636.037 448.869 657.717 403.097C664.916 414.238 672.972 427.424 678.255 439.644C693.079 473.927 698.238 511.638 690.345 548.261C680.304 595.66 651.852 637.132 611.243 663.56C569.948 690.035 520.114 698.644 472.486 687.579C448.251 681.949 435.299 675.61 414.636 663.292C425.642 653.362 436.876 645.289 448.128 636.011C449.643 635.045 450.577 634.317 451.961 633.177C460.076 627.34 468.411 621.763 476.461 615.857C477.931 614.904 478.845 614.375 480.183 613.274C483.428 611.28 485.981 609.593 489.085 607.386C490.622 606.567 491.131 606.231 492.57 605.225C493.919 604.548 494.902 603.832 496.138 602.988C497.561 602.176 498.668 601.509 500.04 600.602C502.982 598.95 505.71 597.206 508.559 595.405C509.976 594.652 511.153 593.938 512.523 593.13C517.891 590.095 523.546 587.002 528.513 583.378C529.868 582.571 530.68 582.013 531.975 581.083C535.138 578.957 537.656 577.254 540.607 574.865C543.326 573.052 545.626 571.167 548.228 569.252C554.471 564.445 564.718 555.073 569.93 549.099Z"/><path d="M689.756 315.689C770.178 352.12 841.58 405.832 898.878 473.002C907.217 482.804 919.344 496.425 924.887 508.36C928.521 516.184 917.787 528.521 912.93 534.804C903.275 547.524 892.873 559.658 881.778 571.143C815.813 640.107 738.115 695.792 646.552 725.073C545.658 757.338 459.58 752.295 360.148 718.666C360.24 717.976 360.357 716.433 360.768 715.882C364.38 711.031 371.958 702.621 376.611 698.911C390.053 704.209 404.821 707.49 418.643 711.119C572.994 751.648 732.642 685.476 842.874 577.249C862.811 557.674 883.699 536.054 900.111 512.822C894.568 504.497 882.611 490.228 875.965 482.548C830.26 430.147 775.315 386.592 713.866 354.054C706.73 350.338 688.889 341.126 682.063 339.038C683.626 333.052 687.608 321.462 689.756 315.689Z"/><path d="M335.388 707.922C328.333 705.192 321.266 701.516 314.368 698.331C277.517 681.233 243.695 657.875 211.601 633.127C201.296 625.18 190.517 615.544 180.558 607.086C172.705 600.417 164.701 591.482 157.23 584.227C146.248 572.794 133.623 561.245 124.138 548.51C117.716 539.889 95.5791 518.415 101.286 507.441C107.794 494.927 119.032 481.808 128.164 471.118C178.592 412.448 239.878 364.071 308.654 328.646C407.508 278.503 518.661 263.974 626.035 293.406C638.716 296.882 653.875 300.438 665.882 305.35C661.48 309.596 657.496 316.171 652.663 320.335C651.52 321.319 648.971 323.751 648.054 324.819C596.16 308.438 543.518 298.902 488.858 302.398C426.452 306.388 368.075 324.155 312.683 352.971C239.2 391.678 175.188 446.159 125.234 512.511C131.704 521.645 139.001 530.749 146.354 539.182C193.495 593.244 250.422 639.793 314.262 672.728C323.541 677.515 333.292 682.527 343.054 686.234C340.937 694.136 337.352 700.8 335.388 707.922Z"/><path fill="#262525" d="M665.882 305.35C671.332 302.326 695.889 272.459 701.269 265.822C698.79 278.976 695.361 291.921 692.253 304.933C691.789 306.876 689.755 314.135 689.756 315.689C687.608 321.462 683.626 333.052 682.063 339.038C676.49 354.725 671.422 370.452 664.96 385.823C662.888 390.753 660.226 398.487 657.717 403.097C636.037 448.869 613.799 493.716 582.792 534.397C580.776 537.041 572.218 547.313 569.93 549.099C568.529 546.764 565.62 549.026 564.644 550.476C564.695 551.096 564.756 551.155 564.16 551.463C564.084 551.9 564.558 551.895 564.967 552.259C565.046 552.937 560.598 556.636 559.806 557.583C559.094 558.435 557.564 559.377 556.852 560.35C555.006 561.171 553.364 563.468 551.699 563.756C550.448 563.972 550.991 561.76 550.821 561.296C551.224 560.675 551.516 560.074 551.798 559.382L551.903 559.131C561.183 550.496 572.685 539.42 580.054 528.983C614.303 480.475 644.873 424.194 666.009 368.685C676.035 341.627 684.574 314.041 691.588 286.051C650.757 331.566 607.08 372.91 557.401 408.827C533 426.468 504.768 439.494 481.188 458.329C429.431 500.561 381.475 596.063 358.54 658.572C351.594 677.411 345.354 696.503 339.835 715.808C337.732 722.947 335.905 730.781 333.796 737.619C350.722 719.976 366.261 701.19 384.132 684.403C389.035 679.709 393.734 674.589 398.759 670.034C435.832 636.432 477.091 606.879 520.698 582.355C525.802 579.485 536.053 570.923 540.001 569.341C542.743 568.367 548.927 562.617 549.323 562.698C549.522 562.999 549.448 563.383 549.35 563.701C549.059 564.64 550.029 564.857 550.188 565.267C550.097 565.881 549.254 566.495 548.783 566.949C547.743 566.834 547.712 566.859 546.843 566.405C543.582 566.733 543.748 571.201 543.325 571.819C542.805 572.071 542.915 571.418 542.23 572.393C541.819 572.343 542.02 572.427 541.674 572.054C541.706 571.418 542.356 570.992 542.346 570.375C541.794 569.546 536.567 572.022 540.607 574.865C537.656 577.254 535.138 578.957 531.975 581.083C530.068 577.268 523.738 580.733 528.513 583.378C523.546 587.002 517.891 590.095 512.523 593.13C509.54 590.94 506.028 591.966 508.559 595.405C505.71 597.206 502.982 598.95 500.04 600.602C497.799 597.895 494.215 599.427 496.138 602.988C494.902 603.832 493.919 604.548 492.57 605.225C489.116 602.662 486.215 605.198 489.085 607.386C485.981 609.593 483.428 611.28 480.183 613.274C476.419 610.686 473.725 614.163 476.461 615.857C468.411 621.763 460.076 627.34 451.961 633.177C449.253 631.72 447.267 632.687 448.128 636.011C436.876 645.289 425.642 653.362 414.636 663.292C401.074 674.528 389.036 686.493 376.611 698.911C371.958 702.621 364.38 711.031 360.768 715.882C360.357 716.433 360.24 717.976 360.148 718.666L359.064 718.29C354.858 721.504 330.177 750.723 326.247 756.338L324.237 756.104C326.686 740.974 332.831 723.313 336.018 708.491L335.388 707.922C337.352 700.8 340.937 694.136 343.054 686.234C346.025 679.202 349.396 668.27 352.12 660.758C357.084 647.259 362.387 633.887 368.023 620.654C394.27 561.497 431.11 491.408 482.566 450.487C504.391 434.601 528.649 421.822 551.036 406.771C572.18 392.556 590.996 375.325 610.581 359.194C615.401 355.264 646.047 328.282 648.054 324.819C648.971 323.751 651.52 321.319 652.663 320.335C657.496 316.171 661.48 309.596 665.882 305.35Z"/><path fill="#416DFE" d="M400.462 750.898C401.949 751.708 404.471 753.852 405.891 754.985C399.816 763.414 392.401 771.971 385.97 780.327C369.756 801.396 353.42 821.593 337.431 842.888C335.282 841.673 333.542 840.102 331.633 838.529C334.404 834.662 339.129 829.258 342.263 825.261L365.646 795.287C376.983 780.85 388.688 764.73 400.462 750.898Z"/><path fill="#416DFE" d="M510.017 769.243L516.401 769.566C516.038 780.986 516.343 793.681 516.355 805.236L516.256 858.154C516.277 868.565 516.767 881.878 516.227 891.881C514.557 892.667 512.49 892.517 510.758 891.945C509.51 889.755 510.019 780.544 510.017 769.243Z"/><path fill="#416DFE" d="M688.305 182.879C690.05 183.826 692.316 185.418 694.024 186.541C690.219 192.514 678.107 207.315 673.307 213.506L625.886 273.996L625.379 274.066C623.575 273.5 621.376 271.53 619.803 270.297C622.43 266.834 625.869 263.053 628.7 259.451L661.486 217.483C666.9 210.477 672.275 203.441 677.609 196.374C680.741 192.244 684.862 186.489 688.305 182.879Z"/><path fill="#416DFE" d="M624.121 750.923C627.888 754.539 640.495 771.413 644.318 776.429C660.028 797.043 677.581 817.817 692.905 838.497C691.003 840.371 689.911 841.227 687.822 842.825C679.357 831.318 670.063 820.059 661.086 808.917C646.91 791.322 633.42 772.689 619.126 755.256C621.151 752.991 621.597 752.621 624.121 750.923Z"/><path fill="#416DFE" d="M337.243 183.381C339.74 184.19 399.307 261.521 406.087 270.37C404.495 271.738 402.662 273.161 401.017 274.497C395.787 268.927 388.609 258.987 383.71 252.705L355.028 215.827C347.63 206.264 339.745 195.746 331.689 186.8C333.388 185.657 335.47 184.462 337.243 183.381Z"/><path fill="#416DFE" d="M510.645 133.719L516.389 133.919C515.287 173.699 517.314 215.575 516.346 255.489L510.265 255.561L510.199 164.024C510.19 160.202 509.521 135.611 510.645 133.719Z"/><path fill="#323231" fill-opacity="0.94509804" d="M324.237 756.104L326.247 756.338C325.962 756.667 324.684 758.486 324.205 758.171C323.976 757.726 324.192 756.544 324.237 756.104Z"/></svg>