<?xml version="1.0" encoding="utf-8" ?><svg xmlns="http://www.w3.org/2000/svg" xmlns:xlink="http://www.w3.org/1999/xlink" width="1024" height="1024" viewBox="0 0 1024 1024"><path fill="#EE5B4E" d="M515.565 192.606C515.76 192.597 515.954 192.591 516.149 192.58C521.282 192.285 526.295 190.816 531.374 190.066C540.962 188.65 550.323 191.857 557.514 198.22C566.756 206.398 571.852 217.984 572.473 230.23C573.135 243.289 569.422 254.859 560.52 264.559C549.636 276.418 532.06 282.248 517.582 288.554C499.268 296.531 470.134 310.206 456.814 324.35C453.684 327.674 450.128 332.11 450.158 336.893C450.178 340.055 451.958 342.816 454.176 344.935C458.924 349.47 465.753 352.267 471.703 354.882C508.623 371.106 561.008 375.556 589.881 405.29C596.03 411.624 601.06 419.443 601.577 428.481C602.123 438.015 597.77 446.345 591.477 453.212C580.419 465.279 564.453 472.932 549.489 479.027C540.994 482.486 532.228 485.171 523.495 487.949C509.61 492.366 448.976 509.504 449.202 526.418C449.24 529.265 451.09 531.66 453.107 533.493C457.575 537.556 463.64 540.435 469.05 542.987C481.396 548.812 494.13 552.259 507.204 555.958C529.835 562.362 553.29 568.863 573.573 581.09C579.657 584.758 585.522 588.672 590.474 593.819C596.006 599.571 600.601 606.854 601.079 615.014C601.64 624.604 597.161 632.974 590.856 639.853C581.093 650.503 566.895 658.054 553.774 663.823C529.697 674.409 478.664 686.059 463.016 706.006C461.468 707.979 459.864 710.067 459.914 712.692C459.973 715.739 462.178 718.335 464.391 720.198C469.753 724.712 476.927 727.658 483.425 730.086C493.902 733.999 504.589 736.78 515.42 739.511C535.572 744.59 555.58 749.131 569.645 765.821C574.142 771.158 577.602 777.383 578.356 784.415C579.306 793.268 576.846 801.878 571.222 808.793C560.173 822.377 541.248 831.154 526.03 839.391C520.03 842.639 513.617 845.746 508.086 849.745C495.353 858.953 488.906 872.959 490.457 888.602C492.265 906.84 503.402 922.927 517.39 934.189C518.785 935.307 520.191 936.412 521.608 937.502C489.386 924.816 460.157 887.851 477.412 852.934C491.844 823.729 527.162 816.41 549.419 795.695C555.607 789.936 549.643 784.041 545.395 779.675C541.904 775.941 539.035 773.382 534.219 771.57C521.966 766.959 509.108 764.864 496.536 761.38C471.847 754.25 422.498 737.12 434.939 703C441.742 684.342 463.635 671.9 480.908 664.169C490.363 659.909 500.004 656.076 509.803 652.681C529.278 645.832 562.903 638.18 574.289 618.788C576.554 614.929 570.562 610.262 567.785 608.086C550.584 594.741 528.565 589.883 508.236 583.26C482.6 574.908 440.457 565.022 426.021 540.607C412.37 517.519 439.501 495.187 457.574 485.698C467.083 480.666 476.961 476.361 487.121 472.821C501.541 467.863 516.403 463.9 530.736 458.813C544.509 453.925 570.736 445.532 575.524 430.373L575.693 429.819L575.415 429.134C570.303 416.839 554.763 410.656 543.153 405.946C512.83 393.645 439.223 381.712 425.606 349.488C422.326 341.726 422.592 333.455 425.788 325.726C436.932 298.785 474.066 282.684 499.531 272.318C510.142 267.999 531.993 261.4 540.211 254.771C542.75 252.723 544.408 250.086 545.671 247.111C546.689 244.713 547.353 242.14 548.053 239.634C537.136 235.655 530.451 233.822 524.456 222.466C519.988 214.003 523.405 206.813 516.666 201.213C513.227 198.355 509.327 196.525 505.908 193.733C505.602 193.542 504.059 192.616 504.229 192.117C504.289 192.092 514.346 192.57 515.565 192.606ZM537.519 219.618C535.985 213.924 534 205.788 529.009 202.018C528.121 201.347 525.206 201.564 524.229 201.562C525.669 209.166 530.339 216.39 537.519 219.618Z"/><path fill="#F7645F" d="M505.908 193.733C505.602 193.542 504.059 192.616 504.229 192.117C504.289 192.092 514.346 192.57 515.565 192.606C510.85 194.069 508.726 192.537 505.908 193.733Z"/><path fill="#27384E" d="M489.455 586.611C493.317 588.358 501.477 590.584 505.572 591.863C516.422 595.252 527.849 598.186 538.544 601.974C545.744 610.971 547.058 622.351 541.343 632.497C538.15 634.408 530.194 636.782 526.362 638.042C514.84 641.639 501.734 646.47 490.341 650.649C488.604 638.032 483.21 635.287 481.848 623.733C480.779 614.676 485.997 609.018 488.456 601.212C489.459 598.029 489.39 590.348 489.455 586.611Z"/><path fill="#27384E" d="M489.977 398.408C495.512 399.498 503.692 402.184 509.249 403.852C517.813 406.423 527.146 408.934 535.416 412.208C538.149 424.227 547.155 428.274 541.585 445.622C536.154 447.629 530.298 449.536 524.792 451.417C513.354 455.453 501.798 459.144 490.138 462.485C488.261 451.493 483.953 449.106 482.334 439.195C480.732 429.393 486.401 422.521 489.101 413.996C490.189 410.558 489.93 402.492 489.977 398.408Z"/><path fill="#27384E" d="M532.861 494.051L533.398 494.147C534.278 496.142 533.86 506.087 534.728 509.142C536.165 514.206 538.999 518.054 540.686 523.04C544.986 535.744 537.017 543.393 534.417 554.052L534.248 554.772C526.586 553.186 509.416 547.464 501.25 545.001C495.368 543.286 489.513 541.481 483.687 539.587C478.73 526.679 482.412 519.547 488.599 508.537C501.967 504.575 519.605 498.579 532.861 494.051Z"/><path fill="#27384E" d="M523.772 295.447C526.088 295.722 527.705 297.374 529.541 298.844C534.877 312.309 524.85 319.193 513.468 322.865C528.094 326.939 539.099 336.882 534.252 354.123C533.166 357.985 531.309 360.568 530.635 364.8C522.184 362.414 513.764 359.917 505.379 357.308C497.583 354.98 491.117 353.242 483.766 349.654C483.763 334.056 491.645 327.295 505.759 323.047C496.926 319.897 493.645 320.419 488.694 311.995C499.72 306.967 513.204 301.003 523.772 295.447Z"/><path fill="#EE5B4E" d="M511.23 89.0488C517.238 89.5868 520.122 92.1491 523.345 97.2195C533.613 113.371 534.405 159.136 513.245 166.845C489.543 165.902 486.381 96.5602 511.23 89.0488Z"/><path fill="#27384E" d="M532.97 681.095C533.699 683.482 533.551 689.027 534.306 690.836C538.107 699.943 542.596 706.285 539.509 716.909C537.894 722.465 534.938 727.508 533.855 733.562L533.693 734.501C522.779 732.269 509.806 728.752 498.823 726.057C492.375 724.325 486.036 723.835 483.336 716.942C476.663 699.907 494.769 694.663 506.899 690.215C515.566 687.036 524.202 683.995 532.97 681.095Z"/><path fill="#27384E" d="M494.536 769.611C504.637 773.036 525.73 776.488 534.018 780.616C538.149 786.113 538.384 788.022 538.688 794.826C531.856 798.5 525.137 802.572 518.46 806.536C510.157 811.229 501.703 815.705 494.049 821.385L493.961 806.103C487.594 798.358 488.435 790.531 492.329 781.988C494.625 776.951 494.628 775.031 494.536 769.611Z"/><path fill="#EE5B4E" d="M452.471 135.861C459.679 134.453 466.672 139.132 468.12 146.333C469.569 153.533 464.93 160.552 457.738 162.042C450.488 163.543 443.4 158.859 441.939 151.6C440.479 144.341 445.204 137.28 452.471 135.861Z"/><path fill="#EE5B4E" d="M567.844 135.659C572.646 135.219 577.31 137.408 580.04 141.383C582.77 145.358 583.139 150.497 581.005 154.821C578.87 159.145 574.566 161.977 569.75 162.227C562.506 162.603 556.293 157.113 555.773 149.878C555.254 142.642 560.62 136.322 567.844 135.659Z"/><path fill="#27384E" d="M531.647 845.764L532.154 846.571C516.225 859.551 513.925 900.647 513.974 920.053L513.579 920.022L513.001 918.589C513.119 915.22 511.767 905.635 511.291 902.231C509.5 889.664 507.476 877.132 505.219 864.64C513.757 854.043 519.99 852.591 531.647 845.764Z"/><path fill="#27384E" d="M511.928 210.998C512.276 212.269 512.596 213.108 513.073 214.336C514.512 220.367 513.128 231.533 514.895 238.754C516.898 246.933 514.188 247.125 519.553 255.029C511.918 257.655 506.771 260.494 498.792 262.53C500.912 260.597 506.382 255.704 507.417 253.225C510.488 245.872 509.979 236.429 510.58 228.501C511.005 222.886 511.808 216.579 511.928 210.998Z"/><path fill="#777A81" fill-opacity="0.84313726" d="M511.928 210.998C512.033 210.53 512.133 209.585 512.602 209.255C513.351 209.289 513.07 213.619 513.073 214.336C512.596 213.108 512.276 212.269 511.928 210.998Z"/><path fill="#585D5F" fill-opacity="0.89019608" d="M513.579 920.022L513.974 920.053C513.997 920.988 514.125 922.732 513.857 923.588L513.755 923.679C513.581 923.575 513.568 923.39 513.435 923.033C513.497 922 513.559 921.056 513.579 920.022Z"/><path fill="#777A81" fill-opacity="0.69803923" d="M531.647 845.764C533.616 844.432 533.912 844.947 532.154 846.571L531.647 845.764Z"/><path fill="#777A81" fill-opacity="0.44313726" d="M513.001 918.589L513.579 920.022C513.559 921.056 513.497 922 513.435 923.033C512.975 920.904 512.993 920.807 513.001 918.589Z"/></svg>