<?xml version="1.0" encoding="utf-8" ?><svg xmlns="http://www.w3.org/2000/svg" xmlns:xlink="http://www.w3.org/1999/xlink" width="1024" height="1024" viewBox="0 0 1024 1024"><path fill="#272324" d="M484.974 331.353C486.263 332.323 488.769 332.284 490.733 332.708C502.771 335.304 515.656 335.723 527.832 333.794C529.233 333.573 541.7 331.817 542 331.701C576.362 334.951 602.071 345.686 624.559 372.846C632.961 382.885 639.695 394.21 644.502 406.387C647.487 414.173 649.633 423.262 651.889 431.362C655.297 443.591 658.917 455.759 662.747 467.862C667.855 483.707 673.131 500.669 688.217 510.367C700.97 518.564 727.902 525.98 741.165 514.561C755.975 500.158 763.795 480.027 788.795 482.158C796.476 482.782 803.587 486.459 808.537 492.367C813.891 498.669 814.009 504.592 814.591 512.249C825.278 505.354 835.823 498.417 849.24 500.986C852.723 501.652 862.499 505.592 860.944 509.782C859.529 513.595 852.019 520.618 849.11 523.724C835.825 537.91 822.957 554.147 805.57 563.484C789.425 571.969 766.558 575.326 748.225 578.629C767.403 590.413 779.649 601.732 785.169 624.784C790.048 644.66 786.708 665.663 775.905 683.045C760.827 707.476 740.408 715.452 715.475 726.386L673.986 744.176C667.829 746.844 658.116 750.514 652.868 753.752C671.624 756.678 691.541 762.577 705.965 775.592C722.057 790.112 719.371 811.581 701.348 822.719C689.981 829.981 681.462 832.186 668.642 835.162C666.508 835.588 666.385 835.566 664.474 836.476C659.509 837.301 615.417 837.395 611.584 836.299L607.846 835.829C607.181 835.466 607.081 835.443 606.273 835.339L604.317 835.107C599.331 833.77 593.083 832.667 587.857 831.328C571.417 827.116 561.626 822.272 547.124 813.978C529.495 815.344 525.859 812.189 509.476 807.51C492.972 813.964 490.863 814.332 473.232 814.276C455.532 825.524 438.193 831.229 417.785 835.109C415.296 835.078 412.303 836.095 409.964 836.872C402.38 836.921 364.468 837.385 359.14 836.203C353.335 834.325 347.042 833.374 341.028 831.441C328.441 827.394 309.862 816.721 308.299 801.818C304.922 769.631 347.841 757.136 372.636 753.443C353.822 744.424 332.537 736.624 313.324 728.098C299.416 722.395 286.854 717.37 274.273 708.958C226.421 676.964 222.882 607.473 276.521 578.775C257.498 573.006 232.952 573.538 215.085 561.775C200.457 552.144 187.504 535.96 175.185 523.459C168.017 516.185 155.237 506.509 172.323 502.028C188.788 497.272 196.736 504.899 210.439 511.695C210.79 490.661 226.294 479.131 246.781 482.523C271.883 486.679 273.831 518.681 297.731 520.133C306.684 520.677 317.121 519.109 325.509 515.965C335.361 512.249 343.831 505.592 349.77 496.897C355.326 488.817 357.653 481.094 360.896 472.113C368.827 450.147 373.635 420.955 383.165 400.141C397.569 368.331 425.392 344.588 459.072 335.366C462.368 334.492 465.189 334.025 468.433 333.404C472.639 332.598 481.457 332.89 484.974 331.353ZM635.322 752.243C654.057 743.47 674.053 735.586 693.069 727.266C727.085 712.381 761.615 704.025 775.798 665.039C781.575 648.723 780.687 630.787 773.326 615.122C762.766 592.703 737.269 577.202 712.337 579.238C696.646 580.52 680.729 584.433 665.191 587.2L547.872 609.129C540.774 610.44 520.524 614.729 514.262 615.107C508.644 615.446 485.672 610.4 478.419 609.121C442.064 602.801 405.757 596.207 369.501 589.341L336.661 582.95C328.73 581.428 316.682 579.118 308.8 578.975C299.3 578.854 289.903 580.947 281.352 585.089C266.348 592.387 254.562 604.845 249.131 620.711C243.064 638.239 244.381 657.48 252.779 674.018C265.45 699.328 289.885 709.588 314.216 719.855C330.111 726.643 346.073 733.271 362.101 739.738C397.518 754.575 433.135 768.93 468.942 782.799C483.662 788.577 525.498 806.89 539.736 807.035C532.981 796.309 539.398 785.004 548.102 777.997C565.633 763.885 588.012 758.007 609.887 754.872C618.226 753.677 627.262 753.819 635.322 752.243ZM499.162 803.46C494.392 801.309 489.272 799.823 484.831 797.782C483.186 801.755 482.725 803.119 480.581 806.965C488.105 805.726 491.321 805.912 499.162 803.46ZM249.059 522.243C246.665 507.706 234.695 511.265 232.458 504.668C233.171 500.415 238.328 500.85 241.527 501.905C247.285 503.796 252.043 507.919 254.734 513.351C257.273 518.546 258.461 527.117 251.484 529.433C242.404 532.447 230.399 530.931 221.679 527.314C205.835 520.715 191.522 504.038 173.446 509.661L196.765 534.371C200.798 538.692 204.961 543.341 209.219 547.318C223.161 560.341 243.181 565.259 261.586 568.178C270.398 569.575 281.921 571.526 290.703 572.428C292.17 572.579 304.526 570.813 308.633 570.706C329.768 569.992 352.457 570.449 372.065 561.369C378.927 558.192 384.319 552.817 389.817 548.06C409.361 531.149 414.565 504.624 423.592 481.572C426.026 475.357 427.614 467.736 430.405 461.531C431.173 459.738 432.216 458.368 433.969 457.524C436.048 457.63 435.126 457.32 436.844 458.468C437.522 459.613 438.061 461.166 437.855 462.48C436.419 471.642 435.577 481.207 434.68 490.38C431.645 521.434 428.203 552.423 425.115 583.467C424.983 584.79 424.591 589.342 424.767 590.892C424.768 590.896 426.877 591.511 427.347 591.611C433.499 592.911 439.822 594.012 446.008 595.144L480.766 601.525C489.497 603.126 503.945 606.057 512.403 607.1C515.748 607.513 535.073 603.268 539.913 602.27C559.892 599.273 580.561 594.072 600.443 591.121C599.839 579.448 598.222 567.277 597.042 555.598C595.217 536.524 593.289 517.46 591.255 498.407C590.084 487.3 588.71 475.804 587.762 464.644C587.57 462.394 587.983 459.962 589.376 458.102C593.464 455.826 594.847 461.533 595.851 464.462C603.198 485.894 609.123 510.087 619.747 530.048C624.972 539.866 642.008 556.282 652.16 561.06C672.736 570.746 699.314 569.895 721.733 571.045C726.178 571.273 730.262 572.681 734.701 572.447C753.021 570.241 770.967 567.635 788.579 562.262C810.487 555.579 822.177 540.992 837.157 524.959C840.885 521.029 848.043 514.062 850.988 510.137L850.946 509.655C833.28 502.279 814.746 525.575 798.161 529.052C786.274 531.545 760.513 534.817 770.203 513.86C772.933 507.956 782.87 499.122 789.742 501.115C791.793 502.647 792.559 505.583 790.387 507.176C784.687 511.356 777.449 511.906 776.32 520.324C778.825 526.806 801.015 519.771 806.109 517.471C807.267 501.143 804.356 491.977 785.554 489.944C778.015 489.129 770.57 493.997 765.368 498.959C750.674 513.625 746.709 528.587 722.771 528.126C704.755 527.78 687.991 522.453 674.851 509.374C665.863 500.429 661.183 488.156 657.186 476.346C653.381 465.204 649.894 453.957 646.727 442.617C644.299 433.701 641.699 422.179 638.786 413.635C631.097 391.289 616.601 371.914 597.334 358.231C581.149 346.881 561.955 340.601 542.191 340.189C528.947 339.968 515.396 340.192 502.097 340.044C495.904 339.975 484.368 339.698 478.486 340.201C459.952 342.203 446.181 346.053 430.635 356.311C407.313 371.699 390.74 394.35 383.725 421.435C382.005 428.078 380.228 434.748 378.48 441.383C375.596 452.296 372.34 463.106 368.719 473.797C366.114 481.509 362.36 491.993 358.254 498.801C348.103 515.631 329.804 525.415 310.556 527.533C299.299 528.772 288.509 528.708 279.218 521.232C265.545 510.296 258.862 488.492 238.002 489.86C232.117 490.245 225.786 493.495 222.031 497.995C218.762 501.912 215.707 515.001 221.201 518.047C228.603 522.15 240.781 523.662 249.059 522.243ZM601.212 512.102C601.962 525.731 603.962 538.901 605.196 552.368C606.33 564.734 607.327 577.132 608.485 589.521C631.933 585.414 655.338 581.069 678.698 576.485C670.541 575.303 661.361 573.942 653.584 570.869C638.518 564.915 620.64 547.494 612.546 533.788C609.228 528.168 605.232 516.865 602.305 510.343C602.133 508.752 601.78 509.276 601.758 507.463L600.834 507.225C600.89 506.94 600.884 506.666 600.89 506.378L600.863 506.359C599.987 507.271 600.974 511.038 601.212 512.102ZM423.805 506.351C420.138 514.593 416.819 523.319 412.649 531.233C403.408 548.774 386.891 564.298 368.36 571.598C361.361 574.355 354.442 575.415 347.059 576.609C351.238 578.19 354.618 578.91 359.084 579.482C371.601 581.178 384.338 583.916 396.81 586.067C403.399 587.204 409.631 588.702 416.349 589.282C418.076 570.787 420.443 552.289 422.106 533.807C422.653 527.727 424.818 511.261 423.805 506.351Z"/><path fill="#272324" d="M405.517 629.485C409.748 630.37 422.179 637.741 426.83 640.198L472.376 664.395L498.043 677.957C501.445 679.716 510.648 684.136 512.901 686.002C520.02 683.113 537.039 673.35 544.561 669.287L600.777 639.152C605.388 636.65 618.794 626.049 619.537 635.583C617.86 639.993 607.537 644.353 603.292 646.636L580.404 659.028C560.998 669.545 541.91 680.398 522.177 690.42L530.796 695.195C558.578 710.437 587.368 724.506 615.241 739.657C618.165 741.247 621.59 742.587 623.409 745.503C623.494 746.771 623.625 748.065 622.768 749.145C622.001 750.113 621.151 750.586 619.922 750.512C617.586 750.372 428.314 650.872 408.634 639.644C406.895 638.652 403.726 637.076 402.717 635.316C402.084 634.213 402.038 633.165 402.475 631.981C403.01 630.531 404.218 630.041 405.517 629.485Z"/><path fill="#FC7D34" d="M635.322 752.243C641.163 752.844 647.02 753.218 652.868 753.752C671.624 756.678 691.541 762.577 705.965 775.592C722.057 790.112 719.371 811.581 701.348 822.719C689.981 829.981 681.462 832.186 668.642 835.162C666.508 835.588 666.385 835.566 664.474 836.476C659.509 837.301 615.417 837.395 611.584 836.299L607.846 835.829C607.181 835.466 607.081 835.443 606.273 835.339L604.317 835.107C599.331 833.77 593.083 832.667 587.857 831.328C571.417 827.116 561.626 822.272 547.124 813.978C544.885 812.139 541.909 809.104 539.736 807.035C532.981 796.309 539.398 785.004 548.102 777.997C565.633 763.885 588.012 758.007 609.887 754.872C618.226 753.677 627.262 753.819 635.322 752.243Z"/><path fill="#FC7D34" d="M372.636 753.443C381.803 756.034 401.724 764.793 411.523 768.78C435.865 778.682 460.302 788.349 484.831 797.782C483.186 801.755 482.725 803.119 480.581 806.965C478.733 808.446 474.876 812.336 473.232 814.276C455.532 825.524 438.193 831.229 417.785 835.109C415.296 835.078 412.303 836.095 409.964 836.872C402.38 836.921 364.468 837.385 359.14 836.203C353.335 834.325 347.042 833.374 341.028 831.441C328.441 827.394 309.862 816.721 308.299 801.818C304.922 769.631 347.841 757.136 372.636 753.443Z"/><path fill="#C2C2C4" fill-opacity="0.98431373" d="M601.212 512.102C600.974 511.038 599.987 507.271 600.863 506.359L600.89 506.378C600.884 506.666 600.89 506.94 600.834 507.225L601.758 507.463C601.78 509.276 602.133 508.752 602.305 510.343L601.212 512.102Z"/><path fill="#FC7D34" d="M484.974 331.353C458.032 320.421 439.596 306.506 427.791 278.826C418.1 256.395 417.851 231.006 427.101 208.389C446.714 160.691 500.725 137.958 548.243 157.998C570.663 167.372 588.387 185.347 597.444 207.898C606.747 230.949 606.442 256.765 596.596 279.59C589.356 296.404 577.26 310.674 561.86 320.572C558.971 322.463 542.848 330.218 542 331.701C541.7 331.817 529.233 333.573 527.832 333.794C515.656 335.723 502.771 335.304 490.733 332.708C488.769 332.284 486.263 332.323 484.974 331.353Z"/><path fill="#272324" d="M473.507 228.167C480.052 226.495 486.705 230.477 488.323 237.036C489.94 243.594 485.902 250.214 479.331 251.777C472.836 253.321 466.31 249.341 464.712 242.859C463.113 236.377 467.039 229.819 473.507 228.167Z"/><path fill="#272324" d="M545.987 228.441C552.475 226.797 559.059 230.756 560.648 237.257C562.238 243.758 558.224 250.309 551.71 251.844C545.272 253.361 538.815 249.405 537.244 242.98C535.673 236.555 539.576 230.065 545.987 228.441Z"/><path fill="#272324" d="M359.14 836.203C364.468 837.385 402.38 836.921 409.964 836.872C411.831 836.935 417.64 837.003 419.346 836.642C432.709 835.731 455.55 836.451 469.444 836.477L564.151 836.673L595.492 836.773C599.428 836.767 607.944 836.933 611.584 836.299C615.417 837.395 659.509 837.301 664.474 836.476C665.622 836.523 666.77 836.564 667.918 836.598C712.286 836.184 757.154 836.742 801.588 836.693L855.285 836.559C862.165 836.557 869.066 836.578 875.938 836.39C882.066 836.222 883.97 844.545 874.695 844.638C860.354 844.783 846.02 844.606 831.679 844.638L738.655 844.722L298.686 844.654L188.416 844.471L160.705 844.585C155.863 844.622 150.884 844.827 146.071 844.39C143.462 844.153 142.621 841.106 143.336 838.89C146.811 834.962 158.025 836.54 163.253 836.565L190.643 836.538L295.656 836.625L333.153 836.839C340.594 836.857 351.265 836.98 358.526 836.268L359.14 836.203Z"/><path fill="#272324" d="M579.37 107.078C583.605 106.618 588.982 107.903 593.218 108.804C615.321 113.527 636.436 122.053 655.622 134C701.316 162.817 733.784 208.51 745.964 261.141C747.805 269.312 752.909 293.026 748.879 299.403C741.717 298.767 742.939 294.493 742.42 288.177C740.669 266.23 734.981 244.778 725.628 224.847C698.03 167.388 647.957 126.447 584.672 115.005C581.415 114.416 579.205 114.445 577.646 111.209C577.76 109.199 578.206 108.841 579.37 107.078Z"/><path fill="#272324" d="M443.634 106.718C445.144 106.788 447.813 108.017 447.653 109.733C447.057 116.13 437.607 115.736 433.376 116.638C371.546 129.829 321.276 173.09 296.872 231.512C290.807 246.164 286.608 261.519 284.374 277.218C283.466 283.494 283.369 290.049 282.145 296.302C281.889 297.608 280.51 298.737 279.528 299.626C277.738 299.336 277.844 299.385 276.293 298.454C275.816 297.771 275.136 296.7 275.159 295.826C277.021 224.832 321.039 157.647 384.415 126.008C403.465 116.498 422.571 109.54 443.634 106.718Z"/><path fill="#FEFEFE" fill-opacity="0.52549022" d="M409.964 836.872C412.303 836.095 415.296 835.078 417.785 835.109C416.81 836.416 418.237 836.393 419.346 836.642C417.64 837.003 411.831 836.935 409.964 836.872Z"/><path fill="#FEFEFE" fill-opacity="0.082352944" d="M668.642 835.162L667.918 836.598C666.77 836.564 665.622 836.523 664.474 836.476C666.385 835.566 666.508 835.588 668.642 835.162Z"/><path fill="#FEFEFE" fill-opacity="0.039215688" d="M604.317 835.107L606.273 835.339C607.081 835.443 607.181 835.466 607.846 835.829C605.932 836.134 605.895 836.113 604.317 835.107Z"/></svg>