<?xml version="1.0" encoding="utf-8"?>
<svg xmlns="http://www.w3.org/2000/svg" width="1024" height="1024" viewBox="0 0 1024 1024">
  <circle cx="512" cy="300" r="70" fill="#4F7DF7"/>
  <path fill="#4F7DF7" d="M420 410 C470 370,554 370,604 410 L640 520 C650 570,620 610,570 610 L454 610 C404 610,374 570,384 520 Z"/>
  <path fill="#4F7DF7" d="M300 700 C360 620,450 600,512 620 C574 600,664 620,724 700 C650 740,590 760,512 760 C434 760,374 740,300 700 Z"/>
  <path fill="#7EA1FF" d="M512 180 C548 220,548 270,512 300 C476 270,476 220,512 180 Z"/>
  <path fill="#7EA1FF" d="M250 600 C320 520,400 500,470 560 C400 620,330 650,250 600 Z"/>
  <path fill="#7EA1FF" d="M774 600 C704 520,624 500,554 560 C624 620,694 650,774 600 Z"/>
  <path fill="#AFC4FF" d="M512 110 C610 180,660 280,660 390 C660 470,600 520,512 520 C424 520,364 470,364 390 C364 280,414 180,512 110 Z"
        opacity="0.22"/>
</svg>