<?xml version="1.0" encoding="utf-8" ?><svg xmlns="http://www.w3.org/2000/svg" xmlns:xlink="http://www.w3.org/1999/xlink" width="1024" height="1024" viewBox="0 0 1024 1024"><path fill="#0968FE" d="M589.756 498.172C600.622 495.729 610.769 493.069 621.003 488.204C678.204 461.014 720.914 399.762 718.778 335.358C718.484 326.473 716.839 317.417 716.447 308.494C713.358 238.535 762.118 168.387 832.171 154.339C838.376 153.206 844.738 152.205 851.055 152.977C882.887 156.864 899.867 193.175 884.424 220.431C878.532 230.718 868.832 238.278 857.417 241.479C839.199 246.537 822.792 247.416 813.282 267.691C802.889 289.846 809.096 309.647 809.484 332.617C811.685 463.185 716.77 568.459 589.678 590.124C589.293 594.617 589.489 601.905 589.485 606.663L589.465 636.4C589.677 669.584 589.426 702.77 588.712 735.947C561.106 721.192 527.871 721.578 500.615 736.971C500.888 731.909 500.527 724.65 500.484 719.315L500.523 691.176C500.635 657.627 500.445 624.078 499.953 590.533C499.216 590.408 498.48 590.275 497.746 590.133C485.814 587.856 469.788 584.393 458.178 580.612C389.197 558.404 332.765 508.16 302.729 442.21C285.923 405.263 279.249 371.175 280.954 330.682C281.528 306.524 287.932 283.299 272.862 261.776C262.624 247.154 250.639 244.597 234.168 241.826C194.762 235.194 182.987 182.336 217.325 160.394C232.197 150.891 246.721 151.971 263.533 155.167C288.016 160.104 306.696 172.851 324.501 189.41C356.721 219.232 374.782 261.32 374.198 305.22C374.097 313.218 373.047 321.501 372.446 329.511C369.843 364.214 380.113 399.764 399.127 428.968C422.373 464.671 458.764 489.764 500.398 498.798C500.168 479.371 500.515 459.242 500.5 439.732C500.228 402.798 500.201 365.863 500.421 328.929L500.508 275.332C500.508 264.785 500.717 253.141 500.28 242.699C482.491 242.764 465.12 243.433 447.317 241.726C424.773 239.564 409.732 219.968 408.941 198.043C408.495 186.767 412.622 175.788 420.386 167.599C430.161 157.178 441.246 153.201 455.259 153.017C486.721 152.604 518.158 153.224 549.628 152.897C570.403 152.691 591.179 152.644 611.955 152.756C632.494 152.89 650.219 150.271 666.143 165.445C684.788 183.213 684.819 211.117 667.052 229.403C653.555 243.293 634.525 242.961 616.705 242.813L589.93 242.576C589.113 250.246 589.534 267.567 589.556 275.668L589.535 332.922L589.618 429.123C589.573 451.504 589.062 475.882 589.756 498.172Z"/><path d="M500.615 736.971C527.871 721.578 561.106 721.192 588.712 735.947C622.221 753.859 641.167 790.622 636.31 828.306C631.453 865.99 603.804 896.747 566.848 905.576C529.891 914.405 491.326 899.466 469.96 868.047C448.593 836.627 448.877 795.27 470.672 764.147C476.995 755.118 484.898 747.306 493.999 741.088C496.145 739.623 498.352 738.249 500.615 736.971Z"/><path d="M265.528 712.22C248.296 742.96 210.532 755.58 178.28 741.377C146.029 727.173 129.844 690.793 140.888 657.328C151.932 623.863 186.592 604.262 220.962 612.045C255.333 619.828 278.167 652.448 273.717 687.406C272.607 696.127 269.827 704.551 265.528 712.22Z"/><path fill="#0968FE" d="M273.717 687.406C282.29 688.929 291.699 691.476 300.218 693.57L338.823 703.074L384.586 714.159C408.272 720.052 431.786 726.471 455.647 731.796C468.605 734.687 480.832 738.764 493.999 741.088C484.898 747.306 476.995 755.118 470.672 764.147C444.529 756.396 413.609 750.042 386.851 743.186L314.231 724.729C299.124 720.823 280.56 715.598 265.528 712.22C269.827 704.551 272.607 696.127 273.717 687.406Z"/></svg>