<?xml version="1.0" encoding="utf-8" ?><svg xmlns="http://www.w3.org/2000/svg" xmlns:xlink="http://www.w3.org/1999/xlink" width="1024" height="1024" viewBox="0 0 1024 1024"><path fill="#FC673F" d="M393.373 211.12C395.696 204.2 399.505 197.117 402.781 190.613C427.607 141.324 477.995 83.9769 539.579 105.361C577.435 118.506 608.857 159.106 625.927 194.259C634.137 210.893 641.117 228.107 646.808 245.763C706.878 234.093 779.367 230.763 833.248 265.683C852.522 278.174 873.129 302.331 877.88 325.237L877.976 325.687C895.528 325.75 911.469 335.928 918.913 351.823C926.357 367.718 923.969 386.48 912.78 400.003C901.592 413.527 883.609 419.386 866.601 415.051C865.575 417.463 864.543 419.873 863.522 422.287C850.296 453.549 830.41 484.148 808.656 510.246C846.515 558.577 886.829 619.024 880.222 684.001C877.496 710.812 863.217 737.459 841.696 753.778C795.177 788.588 741.188 786.369 687.159 781.384C680.445 805.362 655.75 819.532 631.661 813.228L628.178 820.618C609.887 859.156 580.199 904.419 538.194 919.157C517.771 926.097 495.426 924.619 476.096 915.048C444.37 899.704 420.609 869.678 403.631 839.552C392.74 820.229 384.772 799.178 377.532 778.266C317.066 789.042 242.803 794.066 189.031 758.68C112.739 708.475 145.615 607.789 188.517 547.207C196.971 535.269 206.219 523.387 214.34 511.23C176.947 468.529 139.705 401.1 143.825 342.839C145.506 316.42 157.755 291.791 177.809 274.511C212.604 244.698 260.851 237.972 305.118 239.395C315.599 239.732 325.98 240.861 336.424 241.637C343.722 217.484 369.22 203.821 393.373 211.12ZM659.273 726.365C678.423 733.564 690.442 752.63 688.679 773.013C696.385 774.213 714.49 775.486 722.36 775.83C762.285 777.612 812.991 770.151 842.952 741.372C897.574 688.906 865.748 606.439 829.803 553.312C821.641 541.249 812.578 527.674 802.777 517.253C798.981 523.224 785.511 537.87 780.334 543.427C757.754 567.705 733.453 590.323 707.621 611.108C697.663 619.257 686.114 627.341 676.684 635.236C676.294 640.37 674.754 649.027 673.965 654.437C670.532 678.689 665.626 702.709 659.273 726.365ZM348.232 385.139C350.702 376.84 351.208 365.645 352.947 357.122C356.423 340.089 360.374 314.352 366.099 298.32C345.449 291.642 332.348 271.359 334.752 249.79C293.121 246.925 257.328 245.279 217.588 261.142C181.022 275.738 155.187 303.095 152.657 343.899C149.665 392.125 172.661 438.537 199.237 477.316C205.647 486.634 212.574 497.014 220.637 504.868C228.608 495.693 235.841 486.235 244.267 477.376C264.396 456.211 285.358 436.516 307.608 417.594C316.364 410.147 325.082 403.487 334.193 396.458C338.415 393.201 344.638 388.789 348.232 385.139ZM676.516 385.896C682.817 392.172 693.529 398.964 700.73 404.678C727.457 425.886 752.659 448.595 776.237 473.264C785.441 482.848 793.71 493.286 802.618 503.023C824.164 478.55 846.76 442.245 858.33 412.064C840.632 403.653 830.33 384.833 832.783 365.392C835.235 345.951 849.888 330.279 869.12 326.526C849.288 256.958 760.168 241.689 698.463 247.575C682.417 249.105 665.463 250.675 649.743 254.241C660.299 289.692 668.395 324.313 673.043 361.006C674.099 369.337 675.197 377.601 676.516 385.896ZM386.589 776.604C399.859 816.794 416.283 853.107 446.786 883.157C519.766 955.054 584.798 890.432 618.908 820.976C620.603 817.474 622.253 813.951 623.858 810.406C605.975 802.03 595.509 783.103 597.922 763.504C580.911 758.03 564.461 753.175 547.67 746.915C535.72 742.46 525.35 737.936 513.699 732.794C508.196 734.504 502.817 737.172 497.57 739.571C461.622 756.008 424.768 766.827 386.589 776.604ZM509.675 289.979C514.417 287.621 519.794 285.624 524.666 283.454C561.176 267.195 599.179 257.004 637.818 247.177C620.19 189.229 568.158 91.5793 492.017 112.802C459.115 121.972 430.694 159.15 414.567 187.638C409.784 196.087 406.61 205.52 401.983 213.915L401.638 214.533C418.17 223.341 427.65 241.349 425.554 259.964C430.937 261.608 436.781 262.76 442.273 264.575C463.532 271.6 489.466 280.242 509.675 289.979ZM666.927 642.296C659.828 646.529 651.731 652.891 644.724 657.717C632.452 666.02 620.032 674.103 607.471 681.961C587.984 694.133 568.018 705.519 547.62 716.093C539.852 720.173 531.31 723.844 523.786 727.907C534.558 731.6 544.978 736.266 555.584 740.41C564.983 744.03 574.519 747.288 584.169 750.178C587.897 751.325 596.392 754.147 599.936 754.608C607.13 733.093 629.038 720.13 651.36 724.179C657.128 696.072 662.63 670.805 666.927 642.296ZM346.368 398.59C319.09 418.119 289.915 444.604 266.295 468.156C253.458 480.955 237.008 497.915 226.144 512.398C243.927 534.096 263.278 554.459 284.042 573.325C304.604 592.524 323.291 607.582 345.897 624.327C337.079 554.016 336.826 468.842 346.712 398.764L346.368 398.59ZM678.107 622.278C688.085 615.385 696.685 608.162 706.026 600.475C717.084 591.374 729.665 581.168 739.997 571.249C758.211 553.872 781.503 530.095 797.326 510.268C765.096 471.24 719.342 427.06 677.665 398.295C681.277 429.382 683.525 460.612 684.401 491.896C685.217 530.993 683 570.533 679.655 609.516C679.299 613.663 678.802 618.175 678.107 622.278ZM356.578 643.729C363.137 682.731 369.02 721.644 380.709 759.58C381.585 762.423 382.436 765.174 383.538 767.943C414.701 760.86 445.245 751.288 474.876 739.318C483.618 736.157 494.86 730.952 503.077 728.376C497.821 725.583 492.485 723.3 487.134 720.725C464.347 709.76 442.213 698.161 420.41 685.352C407.43 677.649 394.655 669.605 382.1 661.228C374.006 655.722 364.776 648.731 356.578 643.729ZM666.299 378.098C662.322 341.133 655.105 304.589 644.73 268.888C643.962 266.232 641.846 257.417 640.499 256.048L638.797 256.058C613.547 262.431 588.09 268.884 563.662 277.981C549.721 283.173 534.98 288.21 521.569 294.614C548.225 307.97 569.958 318.988 595.768 333.908C611.124 342.514 626.182 351.642 640.915 361.277C647.731 365.724 659.783 374.594 666.299 378.098ZM499.129 294.89C472.082 283.632 452.09 276.656 423.782 268.41C417.117 289.857 395.851 303.279 373.623 300.067C369.052 320.718 364.044 341.13 361.011 362.09C360.282 367.131 359.681 372.231 358.858 377.248C367.543 372.306 379.387 362.975 388.47 357.007C416.975 338.263 446.503 321.125 476.918 305.673C482.277 302.983 494.04 296.63 499.129 294.89ZM220.224 519.275C183.135 566.242 145.586 625.45 153.351 687.845C162.469 761.109 246.959 779.317 308.09 777.295C328.144 776.357 354.743 773.748 374.362 769.192C367.462 743.192 360.63 720.207 355.794 693.195C353.52 680.51 351.484 667.783 349.687 655.022C349.066 650.794 347.759 639.538 346.817 635.926C339.446 629.772 329.93 623.52 322.012 617.281C303.133 602.585 285.032 586.915 267.783 570.336C259.555 562.449 252.218 555.167 244.575 546.875C240.167 542.093 224.021 522.065 220.224 519.275ZM667.747 630.814C670.288 618.154 671.701 598.903 672.771 585.633C675.282 554.374 676.281 523.012 675.766 491.656C675.166 472.319 673.99 453.005 672.241 433.738C671.08 419.421 670.079 405.335 668.065 391.064C624.301 359.46 577.854 331.748 529.257 308.244C525.327 306.375 513.397 300.422 509.862 300.007C499.696 303.752 488.508 310.032 478.778 315.006C448.49 330.489 418.242 348.304 390.014 367.273C380.985 373.34 364.53 383.733 356.756 390.751C346.939 458.755 345.284 527.688 351.825 596.085C352.501 603.561 354.089 626.849 355.393 632.467C373.201 644.028 389.971 656.273 408.25 667.661C436.936 685.272 466.596 701.244 497.087 715.501C500.202 716.981 511.259 723.195 513.913 723.093C560.976 699.515 606.146 674.662 648.898 643.805C655.038 639.374 661.769 635.343 667.747 630.814Z"/><path fill="#060948" d="M336.424 241.637C343.722 217.484 369.22 203.821 393.373 211.12C396.233 211.985 399.001 213.128 401.638 214.533C418.17 223.341 427.65 241.349 425.554 259.964C425.231 262.829 424.638 265.657 423.782 268.41C417.117 289.857 395.851 303.279 373.623 300.067C371.07 299.698 368.553 299.114 366.099 298.32C345.449 291.642 332.348 271.359 334.752 249.79C335.06 247.027 335.62 244.298 336.424 241.637Z"/><path fill="#060948" d="M599.936 754.608C607.13 733.093 629.038 720.13 651.36 724.179C654.058 724.669 656.706 725.4 659.273 726.365C678.423 733.564 690.442 752.63 688.679 773.013C688.434 775.844 687.925 778.647 687.159 781.384C680.445 805.362 655.75 819.532 631.661 813.228C628.98 812.527 626.368 811.582 623.858 810.406C605.975 802.03 595.509 783.103 597.922 763.504C598.294 760.479 598.969 757.499 599.936 754.608Z"/><path fill="#060948" d="M877.976 325.687C895.528 325.75 911.469 335.928 918.913 351.823C926.357 367.718 923.969 386.48 912.78 400.003C901.592 413.527 883.609 419.386 866.601 415.051C863.754 414.325 860.984 413.325 858.33 412.064C840.632 403.653 830.33 384.833 832.783 365.392C835.235 345.951 849.888 330.279 869.12 326.526C872.037 325.957 875.004 325.676 877.976 325.687Z"/><path fill="#060948" d="M503.457 376.963C577.919 372.165 642.195 428.587 647.089 503.043C651.983 577.499 595.644 641.848 521.195 646.838C446.609 651.836 382.117 595.372 377.214 520.781C372.312 446.189 428.859 381.769 503.457 376.963Z"/><path fill="#FC673F" d="M505.778 511.757C531.064 508.147 554.457 525.807 557.912 551.114C561.368 576.421 543.566 599.706 518.238 603.007C493.128 606.279 470.087 588.663 466.661 563.574C463.235 538.484 480.71 515.336 505.778 511.757Z"/><path fill="#060948" d="M507.215 523.433C526.023 520.603 543.529 533.657 546.184 552.492C548.838 571.326 535.621 588.71 516.763 591.189C498.152 593.635 481.044 580.629 478.425 562.041C475.805 543.453 488.652 526.225 507.215 523.433Z"/><path fill="#FC673F" d="M509.194 425.215C540.335 423.291 576.412 437.981 597.922 460.522C600.824 463.562 609.818 470.154 601.246 475.481C598.743 477.037 593.78 472.783 591.888 470.839C571.672 450.062 544.713 438.772 515.927 436.891C491.037 434.859 461.723 446.097 442.517 461.749C437.343 465.942 433.295 472.336 427.29 475.337C424.316 477.127 420.238 474.009 420.242 470.946C420.251 463.169 436.038 452.387 441.238 448.475C462.247 432.666 483.184 426.65 509.194 425.215Z"/><path fill="#FC673F" d="M505.983 467.174C529.04 464.948 546.943 472.351 564.702 486.599C567.773 489.211 573.437 494.02 573.732 498.249C573.966 501.613 569.867 505.404 566.393 503.503C562.63 501.443 560.112 497.901 556.81 495.142C546.27 486.333 533.247 480.409 519.537 478.983C500.95 476.772 482.831 483.722 468.556 495.403C463.929 499.19 457.934 509.567 452.264 501.845C450.476 499.411 451.913 495.92 453.717 493.942C468.023 478.261 485.213 470.083 505.983 467.174Z"/></svg>