<?xml version="1.0" encoding="utf-8" ?><svg xmlns="http://www.w3.org/2000/svg" xmlns:xlink="http://www.w3.org/1999/xlink" width="1024" height="1024" viewBox="0 0 1024 1024"><path fill="#E6E1D6" d="M352.051 532.144C367.735 541.843 383.075 551.763 398.599 561.699C411.225 569.78 424.984 577.616 436.842 586.792C464.016 608.039 483.126 637.923 491.016 671.503C497.19 697.812 498.31 735.744 483.748 759.384C476.143 771.902 463.772 780.788 449.481 783.999C428.765 788.686 407.55 782.396 389.004 772.844C387.941 772.297 386.928 771.386 386.221 770.426C386.086 765.915 390.213 758.083 391.114 753.624C395.314 732.835 386.53 711.954 371.219 697.932C363.705 691.051 355.652 685.139 347.835 679.074L305.686 646.713C295.92 639.219 284.673 631.129 276.856 621.801C266.568 609.523 264.485 591.998 260.429 577.065C259.447 573.45 256.162 565.922 254.612 562.292C248.569 548.136 241.906 534.064 235.459 520.06L207.748 459.542C201.842 446.638 195.744 433.626 190.115 420.616C187.963 415.642 186.575 408.466 192.169 405.32C204.741 398.247 217.015 408.82 222.952 419.292C228.517 429.107 233.686 438.672 238.984 448.423L273.934 513.119C277.783 520.383 283.847 534.508 288.691 540.21C300.658 554.302 319.905 566.47 334.175 578.662C337.282 581.317 342.008 584.701 344.707 587.363C350.939 592.863 357.929 598.119 364.334 603.485C366.562 605.367 368.978 607.267 371.278 609.071L377.909 614.93C377.682 614.613 384.952 623.161 384.839 623.043L385.099 623.518C391.399 635.735 392.84 641.538 387.749 655.203C387.336 655.608 387.267 655.657 386.956 656.18C385.212 659.1 382.713 661.372 380.244 663.683L383.706 662.783C392.938 660.433 401.642 655.762 403.98 645.643C405.12 640.938 404.956 635.246 403.477 630.627C397.786 609.749 375.095 594.234 358.541 581.141C357.499 580.12 354.306 577.535 353.099 576.645C343.99 569.195 334.838 561.798 325.642 554.455C314.442 545.465 281.039 524.51 304.371 510.892C304.53 510.842 304.69 510.791 304.849 510.741C306.766 510.148 308.922 509.962 310.532 509.385C315.478 510.51 317.733 510.856 322.331 513.436C324.491 515.209 341.763 526.28 343.998 527.228C345.442 528.207 346.629 528.914 348.135 529.772C349.41 530.611 350.716 531.403 352.051 532.144Z"/><path fill="#E6E1D6" d="M635.712 630.468C640.989 616.782 658.94 604.519 670.264 595.345C684.268 583.807 698.381 572.402 712.6 561.131C722.458 553.336 733.977 545.952 740.064 534.643C743.881 527.551 747.226 520.197 751.001 513.04C763.618 489.122 776.436 465.311 789.454 441.608C794.641 432.238 799.08 422.649 805.164 413.578C811.533 404.081 825.581 396.722 834.445 407.799C836.069 409.828 836.429 413.908 835.7 416.36C833.637 423.302 830.019 429.888 826.999 436.501L812.189 469.348L782.874 533.491C777.612 545.03 771.597 557.378 766.879 569.031C760.336 585.191 759.396 603.981 749.075 619.191C740.439 631.917 724.866 641.657 712.555 650.682C706.944 654.795 702.244 658.504 696.815 662.795C690.012 668.202 683.18 673.572 676.318 678.905C670.746 683.207 665.211 687.371 659.831 691.912C635.005 712.867 626.156 739.85 639.398 770.03C622.992 783.123 594.069 788.796 573.753 783.885C559.783 780.505 547.736 771.695 540.282 759.406C525.116 734.472 526.622 702.019 533.378 674.733C550.632 605.046 586.261 585.688 643.441 550.754C662.432 539.152 680.787 526.509 699.875 515.06C705.549 511.657 711.543 508.331 718.366 510.24C721.647 511.158 724.681 513.196 726.285 516.267C729.231 521.908 727.052 527.887 723.565 532.695C717.925 540.47 709.047 546.162 701.633 552.17C689.796 561.924 677.89 571.592 665.915 581.175C650.425 593.674 628.13 609.615 621.62 628.793C616.58 642.886 620.542 653.947 633.955 660.819C638.268 659.835 636.323 656.186 634.556 653.008C631.792 648.036 632.549 644.431 632.539 638.961C632.975 636.827 632.904 635.462 634.004 633.506L635.712 630.468Z"/><path fill="#1F2A37" d="M635.712 630.468L635.615 630.853C631.698 645.908 633.212 653.639 644.952 664.041C641.055 663.098 637.704 662.251 633.955 660.819C638.268 659.835 636.323 656.186 634.556 653.008C631.792 648.036 632.549 644.431 632.539 638.961C632.975 636.827 632.904 635.462 634.004 633.506L635.712 630.468Z"/><path fill="#F97565" d="M512.172 236.084C521.984 236.248 522.315 243.695 522.167 251.882C521.868 259.189 522.58 267.159 520.875 274.286C515.544 296.581 497.847 304.89 477.666 310.486C451.796 317.661 456.555 352.991 484.428 352.375C487.44 352.308 491.43 352.447 494.557 352.445C504.995 352.457 515.433 352.395 525.871 352.262C532.276 352.159 542.459 351.692 548.592 352.399C552.399 352.809 556.126 353.777 559.653 355.271C579.679 363.819 588.22 387.066 579.343 406.948C571.531 424.447 554.549 427.945 538.267 432.942C527.859 437.577 521.41 446.15 521.086 457.441C520.777 468.204 523.432 475.815 512.743 479.988C495.963 478.446 502.754 447.551 508.166 437.768C516.794 422.172 531.201 415.392 547.963 411.893C569.253 407.449 571.17 376.934 549.965 370.76C543.59 368.796 536.67 369.833 530.251 369.477C509.86 368.347 481.187 373.923 462.798 364.46C454.023 359.998 447.42 352.181 444.488 342.783C441.111 331.738 442.749 323.259 447.712 313.034C459.423 289.881 482.826 298.289 498.538 280.452C511.331 265.928 495.72 240.552 512.172 236.084Z"/><path fill="#F97565" d="M507.878 497.579C521.326 495.778 534.702 501.361 542.881 512.188C551.059 523.015 552.772 537.408 547.363 549.852C541.954 562.296 530.262 570.862 516.766 572.268C496.319 574.398 477.949 559.717 475.52 539.303C473.091 518.889 487.502 500.307 507.878 497.579Z"/><path fill="#E6E1D6" d="M283.564 503.504C277.374 492.214 254.908 454.454 253.016 445.284C251.853 439.65 252.119 433.589 251.656 427.856L249.393 398.589C248.792 390.718 246.554 377.193 251.146 370.725C253.455 367.42 257.003 365.191 260.982 364.545C268.782 363.266 277.275 369.105 279.285 376.617C281.428 384.624 281.146 393.714 282.016 401.994C284.036 421.224 284.106 441.548 286.7 460.65C286.518 463.283 287.294 471.007 287.544 474.016C287.94 478.787 287.752 485.824 288.443 490.191C288.382 493.206 288.89 496.701 289.224 499.739C287.234 501.357 285.742 502.194 283.564 503.504Z"/><path fill="#E6E1D6" d="M758.68 364.588C765.276 364.109 774.759 367.356 775.79 374.367C777.12 383.402 776.229 397.833 774.983 407.001C772.871 422.54 775.354 440.863 768.123 454.725C760.766 468.18 753.111 481.504 745.483 494.773L740.976 503.257C739.017 502.218 737.765 501.353 735.921 500.098C735.846 483.169 738.365 461.191 739.685 444.075L742.822 405.891C743.479 397.884 744.046 389.881 744.984 381.902C746.092 372.465 749.421 367.438 758.68 364.588Z"/><path fill="#E6E1D6" d="M701.951 497.425C702.303 478.628 703.033 460.327 702.884 441.341C703.151 425.794 702.265 409.694 704.246 394.273C705.201 386.828 712.648 381.398 719.888 381.94C725.784 382.381 731.717 386.405 731.807 392.642C731.956 402.868 730.545 413.455 729.562 423.633L723.98 482.339C723.332 486.134 722.784 492.27 722.555 496.152C713.81 495.906 710.686 495.996 701.951 497.425Z"/><path fill="#E6E1D6" d="M301.514 487.79C300.386 475.461 299.138 463.144 297.77 450.84C296.551 439.005 295.415 427.162 294.363 415.311C293.743 408.672 290.619 391.149 295.503 386.297C306.5 375.371 320.818 385.451 321.332 399.465C321.528 404.819 321.498 410.63 321.489 416.104C321.417 426.311 321.449 436.519 321.584 446.726C321.418 463.428 321.84 480.72 322.12 497.439C314.978 495.235 310.192 494.957 302.667 496.053C302.367 493.733 301.981 489.955 301.514 487.79Z"/><path fill="#E6E1D6" d="M679.127 410.515C686.037 410.266 691.405 415.735 691.678 422.215C692.803 448.938 691.045 476.664 691.039 503.392C687.93 506.117 681.27 510.2 677.591 512.56C674.631 514.576 672.012 516.108 668.91 517.905L669.349 452.007C669.385 443.899 668.791 435.814 669.11 427.705C669.455 418.923 670.139 413.831 679.127 410.515Z"/><path fill="#E6E1D6" d="M332.545 437.939C332.264 426.577 330.508 414.063 343.98 410.299C351.608 412.348 352.471 414.468 355.17 421.608C355.714 433.404 355.494 446.987 355.437 458.87L354.995 517.856L334.28 503.886C334.19 490.04 333.954 476.195 333.572 462.353C333.442 456.86 333.297 442.857 332.545 437.939Z"/><path fill="#E6E1D6" fill-opacity="0.98039216" d="M366.063 496.632C366.555 484.806 363.027 462.338 370.759 453.625C376.226 447.465 386.952 455.384 386.841 463.323C386.51 486.878 388.516 514.489 386.176 537.672C381.07 534.312 375.826 530.77 370.657 527.544C369.876 526.796 367.034 524.856 366.022 524.107L366.261 498.995C366.271 497.925 366.359 497.613 366.063 496.632Z"/><path fill="#E6E1D6" d="M645.098 451.988C658.527 450.421 658.392 464.236 658.279 473.822C658.084 490.375 659.059 507.18 658.509 523.717C655.033 526.782 650.137 529.932 646.238 532.402C643.445 534.231 640.731 536.268 638.03 538.24L637.412 490.851C637.344 484.064 637.161 477.205 637.284 470.421C637.429 462.459 637.294 456.085 645.098 451.988Z"/><path fill="#142942" fill-opacity="0.47450981" d="M358.541 581.141C375.095 594.234 397.786 609.749 403.477 630.627C401.086 628.936 400.654 626.414 399.223 623.755C398.555 622.512 395.847 624.004 395.271 624.671C394.883 627.453 395.604 630.69 395.477 633.499C395.14 636.912 393.512 640.29 392.586 643.627C392.628 641.931 392.627 638.52 392.951 636.749C393.299 634.841 393.673 632.999 393.07 630.756C392.172 628.181 390.688 624.818 388.711 622.97C388.794 623.048 385.9 623.576 385.099 623.518L384.839 623.043C384.912 622.443 384.865 621.789 385.101 621.223C385.228 620.915 385.477 620.674 385.789 620.557C386.658 620.226 386.981 620.316 387.037 619.338C385.294 615.792 391.029 619.648 383.959 613.619C377.529 608.134 380.781 613.174 377.909 614.93L371.278 609.071C376.423 606.009 368.923 605.364 374.284 602.573C374.434 602.495 372.155 596.198 371.72 595.111C367.37 591.521 360.762 586.237 358.541 581.141Z"/><path fill="#142942" fill-opacity="0.34901962" d="M332.706 503.228C336.024 506.429 335.945 506.196 339.924 508.809L338.961 508.869C332.49 509.159 341.804 518.877 344.698 517.238C345.717 515.169 341.885 514.517 341.761 513.747L341.839 513.754L342.03 513.35C346.197 512.332 347.405 518.437 350.463 517.32C351.437 517.62 351.456 517.761 352.283 518.494C353.838 519.874 355.641 519.541 357.656 519.882L354.979 520.158C353.117 520.183 345.547 524.755 344.533 526.378C344.353 526.66 344.175 526.944 343.998 527.228C341.763 526.28 324.491 515.209 322.331 513.436C325.324 512.254 324.478 509.6 324.108 506.975C328.018 509.165 327.382 507.131 326.587 503.357C328.304 505.387 331.338 505.472 332.706 503.228Z"/><path fill="#142942" fill-opacity="0.19215687" d="M390.908 650.812C392.739 648.755 392.47 649.507 393.655 646.811C393.536 647.082 397.3 640.712 396.573 641.1C396.823 641.164 396.981 641.25 397.209 641.398C398.049 637.883 401.184 628.654 403.302 637.496C403.898 639.984 403.734 643.034 403.98 645.643C401.642 655.762 392.938 660.433 383.706 662.783L380.244 663.683C382.713 661.372 385.212 659.1 386.956 656.18C387.267 655.657 387.336 655.608 387.749 655.203C389.246 653.745 389.659 652.477 390.908 650.812Z"/><path fill="#142942" fill-opacity="0.81176472" d="M355.17 421.608C356.707 426.211 355.936 450.496 356.076 456.966C356.41 472.34 356.678 488.455 356.642 503.896C356.63 508.994 359.98 515.826 358.632 519.791L357.656 519.882C355.641 519.541 353.838 519.874 352.283 518.494C351.456 517.761 351.437 517.62 350.463 517.32L350.116 516.985C349.319 516.227 348.541 515.506 347.848 514.62C345.636 511.791 342.923 511.544 339.924 508.809C335.945 506.196 336.024 506.429 332.706 503.228C332.09 498.736 333.551 490.25 333.474 485.1C333.244 469.679 332.121 453.299 332.545 437.939C333.297 442.857 333.442 456.86 333.572 462.353C333.954 476.195 334.19 490.04 334.28 503.886L354.995 517.856L355.437 458.87C355.494 446.987 355.714 433.404 355.17 421.608Z"/><path fill="#142942" fill-opacity="0.32156864" d="M353.099 576.645C354.306 577.535 357.499 580.12 358.541 581.141C360.762 586.237 367.37 591.521 371.72 595.111C372.155 596.198 374.434 602.495 374.284 602.573C368.923 605.364 376.423 606.009 371.278 609.071C368.978 607.267 366.562 605.367 364.334 603.485L366.582 602.92C366.783 602.643 367.131 601.876 367.569 602.222C368.12 603.528 366.815 602.966 368.223 604.267C368.367 601.79 369.667 603.295 368.854 600.211C367.739 595.984 365.664 598.433 364.624 594.782C364.321 593.716 363.747 591.722 363.494 590.525C361.532 587.818 359.753 589.004 358.053 585.605C358.051 585.594 355.84 583.783 355.688 583.701C353.947 582.76 353.164 578.448 353.099 576.645Z"/><path fill="#142942" fill-opacity="0.25098041" d="M633.955 660.819C620.542 653.947 616.58 642.886 621.62 628.793C621.652 629.761 621.632 630.544 621.597 631.503C621.627 633.572 621.816 637.082 621.685 639.001C621.36 643.762 622.776 641.755 623.909 643.282C627.829 648.569 622.594 650.324 629.971 652.852C630.338 653.382 631.704 653.854 631.749 654.488C631.748 655.904 629.591 657.155 631.642 658.32C632.904 659.036 632.718 656.899 633.672 656.42C633.635 656.395 634.105 656.623 634.021 656.657C636.647 655.601 632.827 654.733 632.88 654.765C632.137 653.18 633.601 652.064 632.44 651.21C632.014 651.273 631.634 653.105 630.577 650.519C630.031 649.184 630.241 644.565 630.801 643.318C631.057 643.173 631.43 643.379 631.678 643.459L631.732 643.424C632.003 641.489 631.988 640.87 632.539 638.961C632.549 644.431 631.792 648.036 634.556 653.008C636.323 656.186 638.268 659.835 633.955 660.819Z"/><path fill="#142942" fill-opacity="0.36078432" d="M392.586 643.627C393.512 640.29 395.14 636.912 395.477 633.499C395.604 630.69 394.883 627.453 395.271 624.671C395.847 624.004 398.555 622.512 399.223 623.755C400.654 626.414 401.086 628.936 403.477 630.627C404.956 635.246 405.12 640.938 403.98 645.643C403.734 643.034 403.898 639.984 403.302 637.496C401.184 628.654 398.049 637.883 397.209 641.398C396.981 641.25 396.823 641.164 396.573 641.1C397.3 640.712 393.536 647.082 393.655 646.811C392.47 649.507 392.739 648.755 390.908 650.812C391.427 648.375 392.276 646.081 392.586 643.627Z"/><path fill="#142942" fill-opacity="0.24705882" d="M310.532 509.385C320.584 506.53 316.696 512.947 319.083 503.318C319.347 502.254 321.797 501.519 320.134 500.36C320.872 500.283 317.657 501.711 317.739 501.638C315.025 504.049 314.931 505.955 309.287 503.101L308.798 502.849L308.287 502.596C304.796 500.827 303.754 501.99 300.691 504.068C299.817 504.66 297.168 504.138 297.305 503.001C297.452 501.771 300.533 500.243 301.088 499.101C302.429 501.627 303.185 499.442 306.509 499.668C310.65 499.95 311.558 505.518 315.327 501.709C316.757 500.267 318.048 499.406 319.485 498.464C326.453 503.122 321.272 501.835 324.108 506.975C324.478 509.6 325.324 512.254 322.331 513.436C317.733 510.856 315.478 510.51 310.532 509.385Z"/><path fill="#142942" fill-opacity="0.20392157" d="M301.42 496.436C301.358 497.282 301.205 498.245 301.088 499.101C300.533 500.243 297.452 501.771 297.305 503.001C297.168 504.138 299.817 504.66 300.691 504.068C303.754 501.99 304.796 500.827 308.287 502.596L308.798 502.849L309.287 503.101C314.931 505.955 315.025 504.049 317.739 501.638C317.657 501.711 320.872 500.283 320.134 500.36C321.797 501.519 319.347 502.254 319.083 503.318C316.696 512.947 320.584 506.53 310.532 509.385C308.922 509.962 306.766 510.148 304.849 510.741C305.247 510.099 306.153 508.837 306.419 508.248L306.355 508.074C306.381 508.023 306.408 507.972 306.435 507.921C305.775 507.035 304.037 507.778 303.701 505.363C303.157 505.077 294.521 507.787 297.106 501.485C299.482 500.089 300.051 498.904 301.42 496.436Z"/><path fill="#142942" fill-opacity="0.67450982" d="M321.584 446.726C323.753 458.35 321.332 484.698 323.191 497.569C323.264 498.075 325.176 499.683 325.711 500.15C326.045 501.274 326.33 502.211 326.587 503.357C327.382 507.131 328.018 509.165 324.108 506.975C321.272 501.835 326.453 503.122 319.485 498.464C318.491 498.188 317.246 497.776 316.286 497.373C310.348 494.882 307.205 498.713 301.464 496.186C301.339 493.413 301.454 490.571 301.514 487.79C301.981 489.955 302.367 493.733 302.667 496.053C310.192 494.957 314.978 495.235 322.12 497.439C321.84 480.72 321.418 463.428 321.584 446.726Z"/><path fill="#142942" fill-opacity="0.21960784" d="M621.597 631.503C622.478 631.629 622.93 631.71 624.238 631.912C628.994 632.648 629.387 638.156 629.027 641.88C629.021 641.949 627.26 643.137 627.73 643.999C628.3 645.429 626.583 646.709 627.835 647.471C628.224 647.707 628.388 648.309 628.175 648.718C627.841 648.854 627.534 648.726 627.192 648.782C626.996 650.18 629.091 651.695 629.971 652.852C622.594 650.324 627.829 648.569 623.909 643.282C622.776 641.755 621.36 643.762 621.685 639.001C621.816 637.082 621.627 633.572 621.597 631.503Z"/><path fill="#142942" fill-opacity="0.57254905" d="M385.099 623.518C385.9 623.576 388.794 623.048 388.711 622.97C390.688 624.818 392.172 628.181 393.07 630.756C393.673 632.999 393.299 634.841 392.951 636.749C392.627 638.52 392.628 641.931 392.586 643.627C392.276 646.081 391.427 648.375 390.908 650.812C389.659 652.477 389.246 653.745 387.749 655.203C392.84 641.538 391.399 635.735 385.099 623.518Z"/><path fill="#142942" fill-opacity="0.11764706" d="M366.063 496.632C366.359 497.613 366.271 497.925 366.261 498.995L366.022 524.107C367.034 524.856 369.876 526.796 370.657 527.544C365.181 530.239 373.012 531.948 372.246 534.359C371.951 534.361 371.255 533.436 370.773 533.124L370.79 533.146L370.473 533.013L369.971 533.538L369.953 533.523C369.736 533.999 369.795 536.469 369.021 536.011C367.601 535.171 368.21 533.095 366.784 531.994C365.467 530.978 366.454 529.954 364.441 530.428C363.523 529.511 363.48 529.37 362.414 528.805C361.413 528.091 360.347 527.464 359.612 526.455L359.139 525.85C361.828 525.719 366.688 527.033 364.961 522.225L364.664 521.333C363.251 517.143 365.396 516.121 365.791 512.784C366.295 508.521 364.948 500.616 366.063 496.632Z"/><path fill="#142942" fill-opacity="0.25098041" d="M348.135 529.772C347.593 527.544 345.999 525.735 349.23 524.459C351.932 523.391 352.621 521.658 354.86 520.36C354.262 523.651 355.245 523.394 358.027 523.95L357.11 524.309C353.579 525.564 355.505 526.262 357.213 527.799C358.314 528.748 361.758 532.706 362.414 528.805C363.48 529.37 363.523 529.511 364.441 530.428C357.737 535.728 358.941 527.913 356.199 532.032C355.782 531.967 355.724 531.586 355.689 531.654C356.902 529.304 353.187 527.331 352.785 529.315C353.24 529.51 353.826 529.504 354.113 529.751C353.664 530.666 351.994 530.039 351.322 530.318C351.036 530.777 351.846 531.791 352.051 532.144C350.716 531.403 349.41 530.611 348.135 529.772Z"/><path fill="#142942" fill-opacity="0.33333334" d="M301.464 496.186C307.205 498.713 310.348 494.882 316.286 497.373C317.246 497.776 318.491 498.188 319.485 498.464C318.048 499.406 316.757 500.267 315.327 501.709C311.558 505.518 310.65 499.95 306.509 499.668C303.185 499.442 302.429 501.627 301.088 499.101C301.205 498.245 301.358 497.282 301.42 496.436L301.464 496.186Z"/><path fill="#142942" fill-opacity="0.30980393" d="M344.707 587.363C346.06 587.361 346.269 587.399 347.551 587.02C348.52 586.735 349.797 589.771 350.991 589.753C351.924 589.217 350.634 587.619 350.599 587.363C351.019 586.99 350.811 587.118 351.192 586.931C351.692 587.069 353.627 588.202 353.373 588.856C352.985 589.051 352.365 588.891 352.058 589.258C351.816 589.547 351.889 590.317 352.288 590.435C352.822 590.317 354.366 592.444 354.371 592.456C355.301 595.057 358.919 593.962 359.998 594.975C360.057 595.828 359.066 596.697 360.72 597.78C362.516 598.955 365.181 602.058 366.582 602.92L364.334 603.485C357.929 598.119 350.939 592.863 344.707 587.363Z"/><path fill="#142942" fill-opacity="0.57254905" d="M377.909 614.93C380.781 613.174 377.529 608.134 383.959 613.619C391.029 619.648 385.294 615.792 387.037 619.338C386.981 620.316 386.658 620.226 385.789 620.557C385.477 620.674 385.228 620.915 385.101 621.223C384.865 621.789 384.912 622.443 384.839 623.043C384.952 623.161 377.682 614.613 377.909 614.93Z"/><path fill="#142942" fill-opacity="0.10196079" d="M286.7 460.65C287.398 461.402 287.41 465.796 289.502 466.729L289.594 466.721C291.355 468.126 291.978 474.338 289.93 475.967C289.64 476.198 289.571 477.173 289.237 477.371C289.176 477.292 288.97 475.964 288.758 475.542C288.252 479.816 289.01 485.251 288.443 490.191C287.752 485.824 287.94 478.787 287.544 474.016C287.294 471.007 286.518 463.283 286.7 460.65Z"/><path fill="#142942" fill-opacity="0.26666668" d="M350.463 517.32C347.405 518.437 346.197 512.332 342.03 513.35L341.839 513.754L341.761 513.747C341.885 514.517 345.717 515.169 344.698 517.238C341.804 518.877 332.49 509.159 338.961 508.869L339.924 508.809C342.923 511.544 345.636 511.791 347.848 514.62C348.541 515.506 349.319 516.227 350.116 516.985L350.463 517.32Z"/><path fill="#142942" fill-opacity="0.10196079" d="M293.285 508.049C293.264 504.977 293.827 502.718 297.106 501.485C294.521 507.787 303.157 505.077 303.701 505.363C304.037 507.778 305.775 507.035 306.435 507.921C306.408 507.972 306.381 508.023 306.355 508.074L306.419 508.248C306.153 508.837 305.247 510.099 304.849 510.741C304.69 510.791 304.53 510.842 304.371 510.892C301.735 508.212 303.309 508.313 299.489 508.086C297.389 507.961 297.292 507.233 294.893 509.003L293.285 508.049Z"/><path fill="#142942" fill-opacity="0.10196079" d="M722.555 496.152C722.784 492.27 723.332 486.134 723.98 482.339C724.115 483.488 724.038 490.597 724.747 491.187C725.106 491.485 728.232 491.123 726.952 493.357C726.61 493.939 726.727 493.901 727.174 494.291C727.7 495.868 723.378 496.011 722.555 496.152Z"/><path fill="#142942" fill-opacity="0.28235295" d="M343.998 527.228C344.175 526.944 344.353 526.66 344.533 526.378C345.547 524.755 353.117 520.183 354.979 520.158L354.86 520.36C352.621 521.658 351.932 523.391 349.23 524.459C345.999 525.735 347.593 527.544 348.135 529.772C346.629 528.914 345.442 528.207 343.998 527.228Z"/><path fill="#142942" fill-opacity="0.10980392" d="M728.857 490.856C731.835 491.861 731.615 493.999 730.657 496.669C727.128 494.735 727.288 495.143 728.857 490.856Z"/><path fill="#142942" fill-opacity="0.070588239" d="M357.656 519.882L358.632 519.791C358.487 521.373 358.381 522.497 358.359 524.094L358.027 523.95C355.245 523.394 354.262 523.651 354.86 520.36L354.979 520.158L357.656 519.882Z"/><path fill="#142942" fill-opacity="0.29411766" d="M358.583 524.516C358.978 525.194 359.059 525.188 359.139 525.85L359.612 526.455C360.347 527.464 361.413 528.091 362.414 528.805C361.758 532.706 358.314 528.748 357.213 527.799C358.601 527.244 358.798 527.036 358.654 525.513L358.583 524.516Z"/><path fill="#142942" fill-opacity="0.65098041" d="M358.027 523.95L358.359 524.094L358.583 524.516L358.654 525.513C358.798 527.036 358.601 527.244 357.213 527.799C355.505 526.262 353.579 525.564 357.11 524.309L358.027 523.95Z"/><path fill="#142942" fill-opacity="0.21176471" d="M293.285 508.049L294.893 509.003C292.041 511.238 289.397 512.005 293.285 508.049Z"/></svg>