<?xml version="1.0" encoding="utf-8" ?><svg xmlns="http://www.w3.org/2000/svg" xmlns:xlink="http://www.w3.org/1999/xlink" width="1024" height="1024" viewBox="0 0 1024 1024"><path fill="#1A185B" d="M397.108 447.167C399.619 437.795 407.155 421.267 411.299 411.726C433.046 361.656 460.017 312.56 487.229 265.212C494.287 252.932 504.839 233.868 512.849 222.666C522.919 237.312 534.568 258.796 543.492 274.467C564.048 310.222 583.579 346.556 602.06 383.426C609.216 397.559 616.011 411.872 622.438 426.35C624.979 432.052 629.339 441.364 630.939 447.054C643.654 442.033 656.066 436.006 668.036 429.428C670.906 427.851 673.69 426.443 676.675 425.101C676.71 418.109 680.482 410.587 685.403 405.676C691.025 399.973 698.729 396.808 706.736 396.912C714.546 397.005 721.986 400.249 727.368 405.908C732.079 410.927 733.613 415.353 734.778 421.913C767.291 426.495 790.04 436.828 815.837 457.074C821.219 461.298 831.221 470.857 835.819 474.054C840.405 474.024 843.925 474.114 848.161 476.121C857.258 480.431 874.707 495.18 883.536 501.927C888.246 505.526 893.878 508.716 898.058 512.898C899.619 514.46 901.134 516.487 901.245 518.783C901.338 520.71 900.32 522.375 898.95 523.638C897.571 524.909 895.65 525.916 893.73 525.871C887.337 525.723 850.231 490.356 838.14 487.198C831.12 485.364 821.625 486.42 814.338 486.401C801.508 486.368 788.701 486.218 775.87 486.363L775.914 487.039C776.268 491.817 777.745 495.877 781.564 499.156C785.232 502.304 789.992 503.149 794.754 503.489C799.152 503.803 806.608 503.627 807.327 509.522C807.639 512.08 806.783 514.901 805.281 516.858C803.807 518.779 799.25 518.689 796.961 518.84C787.441 518.899 777.862 518.64 768.331 518.563L724.395 518.316C712.982 518.15 700.939 517.693 689.555 518.317C686.386 518.491 685.18 519.097 682.436 520.568C680.136 524.142 679.103 527.594 680.141 531.861C680.645 533.933 681.879 535.862 683.799 536.888C688.43 539.361 748.047 537.952 758.625 537.93C764.848 537.917 773.01 536.967 779.019 538.576C780.983 539.102 782.594 540.232 783.261 542.247C784 544.477 783.587 546.962 782.504 549.008C781.584 550.744 780.374 552.133 778.387 552.578C772.577 553.881 765.22 553.043 759.211 553.017L712.378 552.878C709.011 552.871 705.606 552.778 702.187 552.864C692.389 553.109 677.817 550.577 679.993 565.508C680.937 573.013 687.55 573.487 693.81 573.369C715.391 572.963 737.003 573.052 758.591 572.991C763.436 572.977 768.944 572.618 773.569 574.146C780.879 576.559 779.459 589.05 771.227 588.457C757.372 588.774 742.933 588.334 729.125 588.679C723.823 588.811 716.784 588.511 713.889 593.47C709.073 601.718 715.577 607.13 723.464 607.251C733.168 607.4 741.982 607.502 751.263 607.529C768.38 607.607 785.498 607.576 802.615 607.435C812.514 607.343 822.412 607.309 832.311 607.333C836.69 607.347 844.063 607.63 848.245 607.288C853.84 603.216 858.755 598.427 863.917 593.824C868.954 589.418 874.036 585.061 879.16 580.756C882.892 577.578 887.164 573.22 891.636 571.27C898.777 567.948 904.67 577.556 899.137 582.434C887.387 592.794 875.182 602.791 863.29 612.998C858.966 616.71 855.296 620.03 849.377 620.178C842.977 620.339 836.642 620.267 830.243 620.254L797.359 620.317C777.155 620.411 756.951 620.392 736.747 620.259C724.388 620.185 707.713 622.951 701.209 608.637C698.059 601.704 698.45 595.696 700.359 588.465C688.884 587.293 678.742 589.452 670.623 579.028C663.114 569.387 662.837 555.63 671.118 546.585C666.459 539.498 663.358 532.959 665.047 524.112C666.247 517.612 670.023 511.873 675.518 508.199C683.141 503.086 689.438 504.074 697.986 503.976C720.428 503.717 743.086 504.522 765.502 504.075C762.692 497.129 759.879 487.426 762.746 480.079C763.763 477.475 765.678 475.558 768.253 474.489C774.148 472.04 802.915 472.977 811.781 472.495C806.918 467.341 802.861 465.216 797.325 461.22C778.859 447.893 755.921 438.652 733.057 436.097C726.112 452.296 711.881 460.26 694.519 453.393C687.988 450.81 683.531 445.059 679.289 439.716C672.542 442.353 662.641 447.672 655.855 450.935C649.905 453.795 641.472 457.431 635.905 460.45C616.305 469.782 606.423 472.387 586.136 478.37C528.825 495.272 475.199 491.694 419.213 471.613C412.517 469.211 398.259 463.812 391.943 460.563C379.465 455.347 359.625 444.709 346.913 438.242C342.96 445.092 338.522 450.741 330.957 453.662C314.286 460.097 297.941 452.323 291.712 436.035C267.202 438.586 231.502 454.068 215.023 472.343C227.757 474.035 243.41 470.941 255.744 473.402C269.236 476.094 263.183 495.934 258.63 504.321C266.252 504.827 277.275 504.444 285.114 504.303C296.662 504.098 308.212 503.987 319.761 503.97C335.07 503.909 352.03 501.224 358.83 518.746C362.615 528.497 360.949 537.696 354.502 545.778C361.886 556.075 362.365 570.118 353.674 579.969C346.17 588.474 335.474 587.468 325.203 587.956C326.318 594.193 326.979 600.564 324.862 606.684C322.741 612.813 318.896 615.94 313.235 618.622C311.096 619.635 309.372 619.969 307.026 620.09C295.698 620.673 173.58 621.044 170.13 619.301C165.741 617.083 131.08 587.7 127.465 584.043C126.084 582.646 125.162 581.199 124.736 579.268C124.328 577.414 124.501 575.413 125.582 573.806C126.601 572.293 128.328 571.277 130.123 571.029C131.92 570.78 133.713 571.278 135.254 572.197C140.769 575.483 145.781 580.666 150.669 584.882C159.423 592.536 168.287 600.064 177.257 607.462C187.327 607.77 198.144 607.495 208.268 607.474L256.59 607.639C266.738 607.713 276.886 607.73 287.034 607.692C292.35 607.723 298.881 608.781 303.991 607.418C307.169 606.57 310.114 604.271 311.556 601.278C312.472 599.376 312.255 595.428 311.392 593.527C306.797 583.407 262.577 591.517 251.919 587.675C250.106 587.021 248.462 585.798 247.692 583.982C246.926 582.176 247.156 579.791 247.914 578.017C248.687 576.207 250.213 574.465 252.114 573.847C257.394 572.132 265.223 573.052 270.798 573.054L312.811 573.061C320.549 573.091 355.53 577.187 344.232 557.273C340.82 551.259 324.762 553.11 317.567 553.067L264.428 552.944C258.809 552.935 251.833 553.838 246.392 552.63C244.907 552.3 243.875 551.755 243.111 550.401C241.825 548.123 241.57 544.954 242.335 542.469C242.878 540.702 243.994 539.187 245.819 538.622C252.267 536.625 261.924 537.793 268.743 537.808C277.391 537.828 338.573 538.811 341.851 536.865C343.613 535.818 344.591 533.808 345.102 531.897C345.874 529.007 345.893 525.245 344.286 522.62C342.643 519.938 339.652 518.915 336.679 518.511C326.045 517.066 310.196 518.341 298.979 518.49C279.174 518.754 259.413 518.605 239.609 518.538C234.971 518.522 226.543 519.473 222.251 518.21C220.933 517.822 220.033 517.006 219.475 515.755C218.486 513.538 217.822 510.183 218.945 507.9C221.402 502.904 233.658 503.992 238.848 501.887C242.902 500.244 246.83 497.558 248.468 493.338C249.173 491.52 249.958 488.561 249.181 486.711C241.188 486.057 190.081 485.71 185.95 487.157C179.061 489.57 159.783 505.823 153.079 511.084C147.49 515.469 140.529 522.67 133.85 525.043C131.944 525.721 129.638 525.976 127.829 524.871C126.053 523.786 125.035 521.47 124.775 519.478C124.518 517.51 125.11 515.638 126.396 514.138C128.956 511.154 172.033 478.682 176.319 476.536C180.656 474.365 184.329 474.064 189.087 473.771C194.372 469.861 200.445 464.544 205.795 460.246C228.502 442.005 259.944 423.537 289.825 421.845C291.002 418.139 292.152 414.295 294.422 411.133C311.613 387.184 344.299 394.589 348.707 424.416C364.486 431.037 380.38 440.856 397.108 447.167ZM322.741 440.691C327.878 439.423 331.936 435.489 333.362 430.394C334.788 425.299 333.362 419.83 329.63 416.08C325.898 412.33 320.436 410.878 315.334 412.279C307.588 414.407 302.99 422.366 305.016 430.14C307.043 437.914 314.942 442.616 322.741 440.691ZM708.234 440.816C716.214 439.6 721.692 432.139 720.463 424.161C719.234 416.183 711.764 410.717 703.788 411.96C695.831 413.2 690.381 420.648 691.607 428.607C692.833 436.566 700.273 442.029 708.234 440.816Z"/><path fill="#F96122" d="M397.108 447.167C399.619 437.795 407.155 421.267 411.299 411.726C433.046 361.656 460.017 312.56 487.229 265.212C494.287 252.932 504.839 233.868 512.849 222.666C522.919 237.312 534.568 258.796 543.492 274.467C564.048 310.222 583.579 346.556 602.06 383.426C609.216 397.559 616.011 411.872 622.438 426.35C624.979 432.052 629.339 441.364 630.939 447.054C628.766 448.431 624.197 450.349 621.756 451.254C594.033 461.537 563.706 470.618 534.153 473.385C486.994 477.802 440.158 465.712 397.108 447.167Z"/><path fill="#1A185B" d="M504.651 669.168C505.349 661.802 504.91 646.007 504.911 638.205L504.745 576.247C504.72 571.503 504.242 552.262 504.685 548.892C504.88 547.421 505.437 546.022 506.306 544.82C510.807 538.664 519.291 541.676 519.603 549.293C519.783 553.706 519.685 557.875 519.654 562.277L519.635 586.152L519.82 668.675C519.303 676.187 519.577 686.353 519.643 694.074L519.627 726.999L708.105 727.071C707.893 731.471 706.822 736.376 705.893 740.741C692.125 805.485 636.878 856.481 570.858 863.687C554.822 865.437 537.783 864.214 521.618 864.671C502.919 864.553 482.585 865.346 463.968 864.355C422.42 862.133 383.5 843.337 355.926 812.178C335.661 789.547 319.95 757.595 317.408 727.19C331.773 726.721 347.154 726.782 361.532 727.019C409.133 727.802 457.446 725.935 504.98 727.245C505.342 716.41 504.989 704.535 505.002 693.578C505.01 686.739 505.204 675.697 504.651 669.168Z"/><path fill="#F96122" d="M391.943 460.563C398.259 463.812 412.517 469.211 419.213 471.613C475.199 491.694 528.825 495.272 586.136 478.37C606.423 472.387 616.305 469.782 635.905 460.45C652.405 506.281 658.321 545.595 636.225 590.69C619.251 625.329 596.442 648.928 559.133 661.405C544.732 666.221 535.11 668.147 519.82 668.675L519.635 586.152L519.654 562.277C519.685 557.875 519.783 553.706 519.603 549.293C519.291 541.676 510.807 538.664 506.306 544.82C505.437 546.022 504.88 547.421 504.685 548.892C504.242 552.262 504.72 571.503 504.745 576.247L504.911 638.205C504.91 646.007 505.349 661.802 504.651 669.168C491.874 667.671 481.102 665.985 468.713 661.94C433.684 650.764 404.573 626.057 387.851 593.312C365.627 549.364 377.622 504.331 391.943 460.563Z"/><path fill="#1A185B" d="M507.106 109.775C508.008 109.726 508.91 109.687 509.813 109.659C550.932 108.381 593.734 124.63 623.649 152.863C654.871 182.33 674.681 225.239 675.87 268.217C676.719 298.912 667.243 330.92 652.355 357.52C649.074 363.205 646.118 369.484 641.724 374.398C638.923 377.531 633.239 377.467 630.47 374.324C629.467 373.206 628.885 371.772 628.826 370.27C628.773 369.147 629.164 366.993 629.747 366.065C645.506 340.991 658.266 315.904 661.112 285.679C664.55 247.063 652.676 208.643 628.051 178.699C599.923 144.748 565.176 128.633 521.912 124.525C504.266 124.159 489.607 125.012 472.299 129.805C434.885 140.518 403.196 165.537 384.093 199.444C357.758 246.209 358.295 304.671 386.174 350.68C389.599 356.332 399.295 366.494 394.658 373.043C387.239 383.52 379.322 368.013 375.713 362.315C360.198 337.454 351.432 308.978 350.281 279.696C348.697 235.756 364.759 193.009 394.887 160.986C423.925 129.574 464.351 111.126 507.106 109.775Z"/><path fill="#1A185B" d="M506.712 158.217L511.258 158.176C542.202 158.057 569.983 168.751 591.993 190.728C614.043 212.314 626.489 241.859 626.532 272.716C626.527 280.506 625.896 292.599 623.678 299.634C621.29 306.617 614.338 339.7 602.517 327.787C598.1 323.336 603.415 313.72 605.501 308.728C626.883 257.555 598.749 197.565 547.221 178.612C537.187 174.921 529.369 173.792 518.619 172.565C506.606 172.16 495.668 173.183 484.088 176.649C458.179 184.269 436.47 202.073 423.926 225.988C411.434 249.785 408.654 277.498 416.17 303.303C417.637 308.295 420.962 313.66 422.822 319.294C426.601 326.745 417.115 332.628 412.556 327.881C404.226 319.21 399.06 294.223 398.147 283.515C392.539 217.698 441.601 162.699 506.712 158.217Z"/></svg>