<?xml version="1.0" encoding="utf-8" ?><svg xmlns="http://www.w3.org/2000/svg" xmlns:xlink="http://www.w3.org/1999/xlink" width="1024" height="1024" viewBox="0 0 1024 1024"><path fill="#FD522E" d="M518.484 398.767C547.487 367.82 593.788 369.435 616.773 406.274C619.014 409.866 621.463 413.947 622.799 417.974C644.153 417.8 661.058 424.462 674.629 441.723C688.9 459.876 688.923 477.092 686.093 498.829C698.317 503.193 712.475 513.874 719.872 524.567C736.954 549.264 738.955 586.358 721.638 611.475C761.33 611.621 801.897 610.991 841.493 611.708C848.792 611.878 856.093 611.945 863.393 611.91C871.576 611.905 881.625 610.531 887.783 616.759C896.225 625.297 891.843 643.081 878.968 643.949C871.426 644.396 863.527 644.162 855.88 644.136L814.949 644.183L732.524 644.138C716.058 644.148 700.221 644.513 683.722 644.161C674.887 669.728 653.601 692.897 629.297 704.709C603.078 717.291 572.905 718.82 545.549 708.951C536.33 705.714 529.468 701.92 520.934 697.342C512.21 701.791 502.045 707.257 492.727 710.099C435.596 727.526 379.627 699.166 358.313 644.131L222.839 644.057L185.239 644.057C177.831 644.059 169.751 644.319 162.416 643.545C159.743 643.264 156.677 641.049 154.864 639.112C151.923 635.99 150.377 631.806 150.583 627.522C151.433 609.698 168.514 611.984 180.752 611.999L212.006 611.869C248.426 611.404 284.85 611.362 321.271 611.742C316.582 603.586 313.215 598.102 310.718 588.94C305.044 568.45 307.921 546.535 318.691 528.204C325.541 516.444 340.616 499.423 354.05 495.831C352.254 465.535 358.754 439.246 387.599 423.647C396.544 418.809 404.598 418.039 414.499 416.977C425.968 393.412 446.534 378.043 473.198 378.054C491.925 378.062 505.687 385.839 518.484 398.767ZM383.102 489.891C392.655 490.054 406.611 489.933 413.958 496.829C419.688 501.913 418.805 514.118 413.061 518.723C404.934 525.237 392.334 520.627 382.408 521.027C327.184 523.254 325.211 607.918 378.882 614.446C389.963 615.794 406.355 610.084 414.02 619.152C416.812 622.514 418.082 626.885 417.527 631.22C417.025 635.473 414.806 639.337 411.386 641.915C405.096 646.653 398.366 644.516 391.273 645.367C413.57 680.876 453.817 692.059 492.112 675.164C500.935 671.271 516.865 658.656 526.114 664.131C552.335 679.653 579.194 689.19 609.492 678.449C623.704 673.549 641.875 659.341 648.908 644.743L648.244 644.682C640.489 644.025 631.385 646.132 625.779 639.202C623.034 635.809 621.409 630.62 622.11 626.276C622.813 621.92 625.514 618.188 629.162 615.779C642.397 607.039 666.915 622.7 689.599 599.876C695.163 594.277 699.342 587.219 701.116 579.492C703.98 567.026 701.822 553.113 694.876 542.34C688.71 532.777 678.076 524.499 666.82 522.118C655.136 519.647 637.448 527.003 630.145 515.566C627.784 511.878 627.011 507.393 628.002 503.127C628.907 499.188 631.347 495.774 634.78 493.643C640.554 490.111 651.072 490.261 657.875 489.939C659.335 479.256 658.675 470.348 651.998 461.3C643.104 449.248 626.156 445.345 613.499 454.042C606.775 458.663 605.432 467.904 598.472 472.236C591.939 476.795 581.816 474.106 577.167 468.16C574.299 464.491 574.024 458.046 574.962 453.697C576.814 445.112 586.168 434.331 593.036 429.392C577.802 399.339 540.486 401.784 536.097 434.726C534.164 449.237 535.57 473.55 535.576 488.856L535.65 591.225C535.668 602.695 536.069 615.559 535.157 627.025C534.93 629.88 530.355 634.611 527.879 635.744C517.407 641.723 504.088 635.903 503.89 623.103C503.793 616.78 503.843 610.743 503.893 604.569C503.974 595.081 503.989 585.592 503.938 576.103L503.884 474.907C503.882 464.007 504.876 437.344 501.727 428.14C498.83 419.668 492.318 412.921 483.954 409.725C466.673 403.32 455.089 411.413 446.45 425.713C456.688 434.611 463.543 445.127 465.133 458.87C466.716 472.436 448.878 479.508 440.037 469.831C436.817 466.306 434.653 461.586 432.184 457.385C424.162 443.735 407.355 444.628 396.603 454.597C386.213 464.23 383.961 476.068 383.102 489.891Z"/><path fill="#FD522E" d="M621.767 548.57C633.059 547.742 641.396 556.318 638.367 567.475C633.339 585.997 604.599 591.467 588.507 592.276C585.636 592.251 582.963 591.964 580.293 590.854C576.388 589.189 573.334 585.998 571.842 582.024C570.261 577.761 570.373 573.822 572.55 569.74C578.964 557.707 594.222 562.484 605.147 557.777C611.76 554.927 615.364 550.684 621.767 548.57Z"/><path fill="#FD522E" d="M415.69 550.597C426.12 549.537 433.213 558.625 443.703 560.861C453.581 562.966 464.342 561.654 468.454 573.22C469.776 576.878 469.563 580.916 467.861 584.414C465.762 588.73 462.102 590.519 457.868 592.03C446.867 593.582 432.644 589.849 422.309 585.404C411.879 580.919 398.644 572.759 404.868 559.139C406.948 554.587 411.095 552.262 415.69 550.597Z"/><path d="M721.638 611.475C761.33 611.621 801.897 610.991 841.493 611.708C848.792 611.878 856.093 611.945 863.393 611.91C871.576 611.905 881.625 610.531 887.783 616.759C896.225 625.297 891.843 643.081 878.968 643.949C871.426 644.396 863.527 644.162 855.88 644.136L814.949 644.183L732.524 644.138C716.058 644.148 700.221 644.513 683.722 644.161C674.887 669.728 653.601 692.897 629.297 704.709C603.078 717.291 572.905 718.82 545.549 708.951C536.33 705.714 529.468 701.92 520.934 697.342C512.21 701.791 502.045 707.257 492.727 710.099C435.596 727.526 379.627 699.166 358.313 644.131L222.839 644.057L185.239 644.057C177.831 644.059 169.751 644.319 162.416 643.545C159.743 643.264 156.677 641.049 154.864 639.112C151.923 635.99 150.377 631.806 150.583 627.522C151.433 609.698 168.514 611.984 180.752 611.999L212.006 611.869C248.426 611.404 284.85 611.362 321.271 611.742C337.359 634.741 363.382 646.966 391.273 645.367C413.57 680.876 453.817 692.059 492.112 675.164C500.935 671.271 516.865 658.656 526.114 664.131C552.335 679.653 579.194 689.19 609.492 678.449C623.704 673.549 641.875 659.341 648.908 644.743C678.666 648.163 704.401 635.639 721.638 611.475Z"/><path d="M160.576 216.064C162.68 215.945 164.813 215.832 166.915 216.048C168.837 216.243 170.691 216.867 172.341 217.874C177.445 221.026 194.486 238.413 199.197 243.455C208.579 253.647 205.74 265.656 204.514 278.041C203.366 290.848 210.725 292.647 221.251 290.477C251.489 284.244 278.294 309.382 273.676 339.981C272.829 345.597 271.268 350.835 270.871 356.515C272.634 360.824 274.38 362.87 279.237 363.17C285.248 363.542 291.262 362.259 297.363 362.539C302.314 362.738 307.184 363.859 311.724 365.842C336.896 376.644 343.8 405.982 335.271 430.272C331.637 440.619 333.473 447.03 321.144 451.803C317.02 452.123 314.142 452.376 310.258 450.627C289.204 441.145 310.268 416.9 305.242 402.013C303.803 397.751 300.33 396.201 296.468 394.642C279.687 396.469 266.034 397.666 252.595 385.302C242.763 376.126 237.886 362.818 239.461 349.461C240.328 342.609 242.286 337.753 241.982 330.637L241.942 329.78C235.273 318.065 228.377 322.85 218.005 323.673C203.909 324.792 189.73 320.083 181.015 308.739C169.629 293.92 171.285 281.629 173.395 264.624C166.196 251.595 143.111 242.882 149.66 225.802C151.61 220.717 155.679 218.02 160.576 216.064Z"/><path d="M877.024 216.55C891.158 215.836 899.669 228.013 892.327 240.491C886.773 249.928 875.518 254.764 870.318 264.641L869.94 265.365C869.835 273.775 871.941 279.934 870.559 288.945C867.232 310.641 847.88 325.227 826.209 323.699C814.804 322.895 808.58 317.203 801.011 329.772C800.731 343.239 806.406 356.267 800.445 370.954C794.305 386.084 778.382 395.977 762.206 395.985C755.857 395.988 748.043 392.634 741.751 395.77C724.009 404.614 743.394 428.938 737.083 442.878C734.849 447.813 730.904 449.906 726.37 451.735C715.451 452.758 709.627 449.25 706.156 437.93C695.71 403.863 702.282 368.587 742.915 362.374C760.241 359.724 773.274 373.781 768.986 342.181C764.196 306.884 791.962 283.666 826.046 290.644C830.72 291.59 834.652 290.418 838.186 287.385C842.37 274.182 836.179 256.467 843.349 245.563C847.489 239.266 862.359 225.152 868.875 219.769C870.711 218.252 874.63 217.183 877.024 216.55Z"/><path fill="#FD522E" d="M432.94 203.146C441.803 202.088 452.856 204.152 460.039 209.672C469.106 217.637 479.658 226.567 487.845 235.511C500.916 249.789 523.332 263.355 526.056 283.356C529.13 305.927 514.731 323.431 492.725 326.343C467.282 328.717 455.154 309.759 438.298 294.555C431.138 288.518 424.426 280.068 417.277 274.268C399.233 259.633 392.744 238.217 406.618 218.156C412.697 209.366 422.087 204.807 432.94 203.146ZM446.359 261.283L449.643 258.312C452.737 254.903 456.103 251.431 459.608 248.444C455.73 244.563 451.963 240.677 447.836 237.049C444.521 234.134 442.552 233.954 438.356 234.147C426.883 238.776 430.373 247.9 437.971 253.201C440.183 254.744 443.949 259.163 446.359 261.283Z"/><path fill="#FD522E" d="M647.99 170.759C677.199 169.148 702.213 191.456 703.942 220.659C705.67 249.862 683.462 274.965 654.267 276.811C624.905 278.668 599.627 256.305 597.889 226.936C596.15 197.567 618.614 172.379 647.99 170.759ZM655.736 245.741C667.796 243.332 675.647 231.636 673.308 219.562C670.969 207.488 659.318 199.57 647.23 201.839C635.044 204.127 627.047 215.895 629.405 228.068C631.763 240.241 643.577 248.17 655.736 245.741Z"/><path d="M864.125 464.685C874.843 463.875 882.71 469.821 892.099 472.876C896.529 474.096 903.903 472.874 908.041 474.474C915.866 477.499 919.832 487.594 916.74 495.342C915.106 499.41 911.877 502.631 907.805 504.254C901.08 506.922 886.53 505.054 879.696 502.546C876.114 501.231 871.83 498.883 868.017 497.307C863.027 508.561 862.499 519.529 854.024 528.897C842.857 541.11 825.295 545.131 809.927 538.995C802.049 535.785 794.756 527.997 786.188 537.701C784.276 544.173 787.259 552.682 781.977 559.862C779.369 563.407 777.19 565.673 772.621 566.518C767.945 567.375 763.123 566.257 759.301 563.43C755.505 560.605 753.287 556.536 752.796 551.833C749.198 517.347 776.279 492.507 810.274 502.714C815.525 504.291 820.972 509.332 826.628 508.637C827.823 508.49 829.783 507.696 830.333 506.489C835.1 493.795 837.727 478.962 849.042 470.047C853.801 466.297 858.385 465.407 864.125 464.685Z"/><path d="M173.364 464.181C195.088 462.306 204.324 482.194 208.948 499.357C210.305 504.392 212.217 507.369 216.991 509.625C217.497 509.48 218.003 509.335 218.509 509.19C225.879 506.661 229.812 502.02 237.875 500.458C262.45 495.699 284.838 511.04 289.513 535.583C290.43 543.193 292.106 553.877 287.433 560.475C282.494 567.449 270.507 568.132 264.124 563.076C258.438 558.573 258.421 550.589 257.872 543.883C257.137 537.677 251.666 529.852 246.357 531.751C234.647 535.94 229.422 541.138 215.904 541.162C196.191 541.196 184.841 527.314 178.429 510.01C177.331 507.046 175.78 499.669 173.686 497.563C171.727 497.761 166.421 500.854 164 501.883C161.202 503.07 158.281 503.941 155.29 504.478C143.8 506.593 127.631 505.265 125.725 490.746C124.686 482.826 128.323 476.749 135.886 474.019C141.082 472.143 147.68 473.751 152.382 472.044C160.412 469.129 164.502 465.234 173.364 464.181Z"/><path fill="#FD522E" d="M253.596 770.026C277.013 768.475 297.257 786.192 298.825 809.608C300.393 833.024 282.691 853.281 259.276 854.866C235.837 856.453 215.554 838.728 213.984 815.288C212.415 791.848 230.154 771.578 253.596 770.026Z"/></svg>