<?xml version="1.0" encoding="utf-8" ?><svg xmlns="http://www.w3.org/2000/svg" xmlns:xlink="http://www.w3.org/1999/xlink" width="1024" height="1024" viewBox="0 0 1024 1024"><path fill="#17314A" d="M507.975 330.241C508.657 328.555 510.488 322.275 512.45 324.907L513.217 324.451C517.099 328.123 520.027 338.469 523.873 343.296C526.262 346.293 529.875 348.945 532.67 351.619C543.092 361.586 560.293 377.401 560.617 392.458C560.811 401.458 559.003 410.481 556.254 419.014C552.594 430.376 547.718 441.532 543.356 452.648C536.426 470.311 524.908 496.217 541.619 512.199C545.834 516.23 552.707 518.835 557.867 521.547C568.308 527.034 590.606 539.145 598.088 547.409C600.415 549.98 602.064 553.074 602.232 556.59C602.382 559.747 601.387 562.578 599.226 564.888C589.157 575.645 550.85 579.984 535.741 591.179C528.286 596.703 528.318 608.532 522.979 613.339C522.252 613.993 521.954 613.952 521.044 614.16C513.385 610.72 520.985 596.062 521.314 591.324C521.98 581.753 519.164 570.461 534.077 572.869C545.008 574.635 550.763 569.492 556.575 560.805C560.776 561.462 566.633 562.62 570.683 561.747L571.36 561.208L571.115 560.587C566.775 559.304 562.07 558.79 558.233 557.743C551.849 555.999 538.042 550.997 533.223 546.684L533.011 545.954L534.342 544.192L534.116 543.762C530.73 543.971 518.899 545.179 516.896 543.165C512.907 539.156 511.383 535.337 506.742 531.065C514.861 547.293 515.573 572.03 515.47 590.222C515.446 594.501 512.768 600.304 513.291 605.22C513.982 611.724 518.812 615.022 520.024 620.954C523.119 636.096 520.895 651.852 520.439 667.206C520.277 672.638 520.968 681.769 520.338 686.462C517.743 689.934 499.483 689.042 495.668 687.779L494.69 686.818C495.372 684.006 512.592 679.613 509.038 668.305C510.187 667.012 509.282 663.108 509.077 661.499C508.547 661.599 508.191 661.786 507.661 662C506.72 661.472 505.79 660.923 504.872 660.356C504.597 658.623 504.602 657.721 504.61 655.981C505.977 655.081 506.117 654.743 507.202 653.41C508.134 649.652 497.909 626.385 497.057 620.451C495.1 606.832 492.75 594.639 489.185 581.486C484.484 564.14 478.616 536.441 482.462 519.163C485.41 505.915 494.855 495.984 489.896 480.323C483.564 449.826 460.849 421.276 463.969 389.715C466.02 376.087 491.822 352.131 502.079 343.058C503.899 341.448 506.872 333.005 507.975 330.241ZM511.794 341.591C511.512 343.281 511.016 344.981 510.573 346.641C501.429 353.62 490.749 369.931 485.135 380.178C478.046 392.188 481.711 397.966 484.552 409.516C491.461 437.61 519.42 447.514 535.526 419.909C537.995 415.676 543.798 397.07 543.07 391.802C541.572 380.955 528.569 363.235 521.583 354.282C519.179 351.163 515.145 346.878 513.584 343.451C513.001 342.172 513.767 342.66 512.213 340.965L511.794 341.591Z"/><path fill="#17314A" d="M507.739 382.57C528.646 381.155 536.351 400.085 528.317 417.367C525.826 422.726 521.187 425.347 515.83 427.26C488.986 431.108 482.999 389.538 507.739 382.57Z"/><path fill="#FEFEFE" d="M507.975 330.241C508.657 328.555 510.488 322.275 512.45 324.907C513.164 327.033 513.859 339.673 512.213 340.965L511.794 341.591C511.096 337.774 511.955 334.392 510.52 330.334C509.427 330.351 509.02 330.374 507.975 330.241Z"/><path fill="#17314A" d="M507.975 330.241C508.657 328.555 510.488 322.275 512.45 324.907C511.694 326.171 510.777 328.96 510.52 330.334C509.427 330.351 509.02 330.374 507.975 330.241Z"/><path fill="#FEFEFE" d="M507.202 653.41C507.895 654.922 507.818 654.83 508.161 656.492C508.516 658.152 508.821 659.822 509.077 661.499C508.547 661.599 508.191 661.786 507.661 662C506.72 661.472 505.79 660.923 504.872 660.356C504.597 658.623 504.602 657.721 504.61 655.981C505.977 655.081 506.117 654.743 507.202 653.41Z"/><path fill="#F45543" d="M189.363 593.663L189.89 592.91C193.573 587.761 199.948 581.593 204.543 577.04C230.539 551.278 269.172 527.63 305.398 521.277C308.519 527.76 312.024 533.684 315.198 540.088C290.15 549.048 272.058 559.644 251.763 576.925C245.802 582.001 240.253 586.805 235.157 592.813C239.528 597.359 245.241 601.851 249.979 606.093C286.087 638.424 327.394 666.317 376.49 672.909C414.666 678.034 452.461 673.396 489.009 661.635C494.074 660.002 498.922 657.57 504.07 656.127L504.61 655.981C504.602 657.721 504.597 658.623 504.872 660.356C504.922 661.543 504.991 662.729 505.079 663.914C505.273 665.598 505.459 666.611 505.947 668.214C501.433 674.76 478.049 690.6 470.511 694.879C429.532 718.142 378.618 722.851 333.521 709.893C285.709 696.155 240.77 660.241 209.717 622.08C202.233 612.882 195.189 604 189.363 593.663Z"/><path fill="#F45543" d="M719.387 521.535L719.947 521.603C759.36 526.79 811.197 562.745 835.074 593.661C831.054 602.005 819.322 616.28 813.338 623.61C780.999 663.223 735.989 697.742 686.161 711.447C645.819 722.543 596.843 717.523 560.203 696.771C547.187 689.706 533.7 680.988 525.253 668.654C525.487 662.643 523.709 659.47 525.689 654.463C528.457 655.557 531.266 656.661 533.98 657.848C577.779 677.061 630.093 683.053 675.996 667.578C709.922 656.141 742.357 634.093 768.581 609.995C774.749 604.328 781.149 598.818 786.881 592.725C766.379 567.109 738.861 550.586 708.409 539.581C711.975 533.509 715.634 527.493 719.387 521.535Z"/><path fill="#F45543" d="M512.722 257.149C551.766 282.921 585.161 331.497 599.407 375.74C616.279 428.138 612.834 482.831 587.237 531.959C583.997 529.665 580.834 527.354 577.412 525.334C584.682 503.561 586.913 485.013 586.349 462.092C584.835 400.587 557.407 346.264 513.308 304.108C490.42 324.065 468.386 354.069 456.537 381.946C432.715 437.988 432.277 493.888 453.79 550.38C453.077 550.752 453.422 550.601 452.959 550.419C452.196 550.287 451.455 550.261 450.685 550.275L450.87 550.224L450.736 550.235L450.767 550.21L450.829 550.916C451.385 551.727 451.327 551.829 451.293 552.834C447.834 548.697 442.492 540.155 439.859 535.346C414.022 488.153 408.462 432.616 423.934 381.15C435.802 341.673 461.793 300.61 492.42 273.071C498.425 267.672 505.78 260.989 512.722 257.149Z"/><path fill="#F45543" d="M316.202 345.778C347.31 343.258 384.974 355.95 410.996 372.558C408.74 379.837 406.569 387.141 404.484 394.471C398.574 392.521 391.305 388.849 384.955 386.587C365.839 379.778 349.192 377.515 329.072 376.683C328.311 379.61 327.814 384.035 327.433 387.11C317.249 469.315 364.925 557.716 435.75 597.636C446.959 604.26 458.8 609.752 471.098 614.029C476.91 616.006 483.641 617.693 489.687 619.601C479.406 620.902 461.443 618.085 450.906 615.904C398.681 605.097 353.008 570.333 323.811 526.451C304.037 496.179 291.89 461.568 288.408 425.578C286.381 402.332 288.154 371.053 292.694 348.457C300.576 346.588 308.177 346.117 316.202 345.778Z"/><path fill="#F45543" d="M615.023 374.028C619.312 369.665 626.182 366.62 631.561 363.735C662.724 347.022 697.297 342.191 732.105 348.118C742.73 415.077 735.778 476.978 695.559 533.788C664.505 577.652 617.531 608.811 563.986 617.236C558.683 618.031 553.357 618.66 548.016 619.122C546.124 618.713 544.624 619.262 544.868 617.173C605.216 596.069 647.096 561.132 675.106 502.739C695.187 460.876 701.441 423.543 697.968 377.335C672.641 375.058 642.922 384.19 619.782 394.195C618.304 387.448 616.718 380.724 615.023 374.028Z"/><path fill="#F45543" d="M511.721 693.403C513.369 693.498 516.101 694.158 517.468 694.973C531.446 703.591 543.906 713.037 558.721 720.369C575.709 728.778 591.753 731.873 609.877 736.206C605.258 739.515 596.312 743.678 590.983 746.064C566.712 756.93 539.052 765.891 512.22 766.049C483.66 766.234 437.543 750.377 412.964 736.346C457.158 727.965 475.368 718.29 511.721 693.403Z"/><path fill="#F8735D" d="M453.79 550.38C454.782 551.704 459.526 561.712 460.891 564.08L459.908 564.622C459.074 563.598 458.262 562.555 457.474 561.495L453.415 556.036C452.661 554.984 451.903 553.977 451.293 552.834C451.327 551.829 451.385 551.727 450.829 550.916L450.767 550.21L450.736 550.235L450.87 550.224L450.685 550.275C451.455 550.261 452.196 550.287 452.959 550.419C453.422 550.601 453.077 550.752 453.79 550.38Z"/><path fill="#FEFEFE" fill-opacity="0.98431373" d="M507.661 662C508.191 661.786 508.547 661.599 509.077 661.499C509.282 663.108 510.187 667.012 509.038 668.305C507.986 668.214 506.988 667.977 505.947 668.214C505.459 666.611 505.273 665.598 505.079 663.914C506.587 663.623 506.707 663.226 507.661 662Z"/><path fill="#F8735D" fill-opacity="0.98039216" d="M537.147 619.521C539.085 618.921 543.349 617.832 544.868 617.173C544.624 619.262 546.124 618.713 548.016 619.122C544.128 619.747 541.013 619.561 537.147 619.521Z"/><path fill="#FEFEFE" fill-opacity="0.72156864" d="M504.872 660.356C505.79 660.923 506.72 661.472 507.661 662C506.707 663.226 506.587 663.623 505.079 663.914C504.991 662.729 504.922 661.543 504.872 660.356Z"/><path fill="#F69A8E" fill-opacity="0.93725491" d="M460.891 564.08C462.519 566.868 462.489 568.167 459.908 564.622L460.891 564.08Z"/></svg>