<svg xmlns="http://www.w3.org/2000/svg" viewBox="0 0 96 96"><defs>
<linearGradient id="brand" x1="0" y1="0" x2="1" y2="1"><stop offset="0" stop-color="#37dbff"/><stop offset="1" stop-color="#5230da"/></linearGradient>
<linearGradient id="goldRing" x1="0" y1="0" x2="1" y2="1"><stop offset="0" stop-color="#ffd75e"/><stop offset="1" stop-color="#d99a12"/></linearGradient>
<linearGradient id="goldG" x1="0" y1="0" x2="0" y2="1"><stop offset="0" stop-color="#ffd75e"/><stop offset="1" stop-color="#e6a417"/></linearGradient>
<linearGradient id="greenG" x1="0" y1="0" x2="0" y2="1"><stop offset="0" stop-color="#3ed388"/><stop offset="1" stop-color="#0f8a52"/></linearGradient>
<linearGradient id="blueG" x1="0" y1="0" x2="0" y2="1"><stop offset="0" stop-color="#5ea8ff"/><stop offset="1" stop-color="#2f6fe0"/></linearGradient>
<linearGradient id="accG" x1="0" y1="0" x2="0" y2="1"><stop offset="0" stop-color="#7a5cf0"/><stop offset="1" stop-color="#401d91"/></linearGradient>
<linearGradient id="cyanG" x1="0" y1="0" x2="0" y2="1"><stop offset="0" stop-color="#4fd9f8"/><stop offset="1" stop-color="#0e7490"/></linearGradient>
<linearGradient id="roseG" x1="0" y1="0" x2="0" y2="1"><stop offset="0" stop-color="#ff7d6e"/><stop offset="1" stop-color="#e03a2c"/></linearGradient>
<linearGradient id="lumin" x1="0" y1="0" x2="1" y2="1"><stop offset="0" stop-color="#7ee8ff"/><stop offset=".55" stop-color="#9b8cff"/><stop offset="1" stop-color="#ffd75e"/></linearGradient>
<radialGradient id="navyGlow" cx=".5" cy=".42" r=".65"><stop offset="0" stop-color="#274b66"/><stop offset="1" stop-color="#011624"/></radialGradient>
</defs>
<circle cx="48" cy="48" r="46" fill="url(#brand)" opacity=".09"/>
<g transform="translate(48,48) scale(1.5)">
<rect x="-18" y="1" width="12" height="13" rx="1.5" fill="#b9aef0"/>
<rect x="-6" y="-6" width="12" height="20" rx="1.5" fill="url(#accG)"/>
<rect x="6" y="4" width="12" height="10" rx="1.5" fill="#8f7bec"/>
<text x="-12" y="11" font-family="Arial, Helvetica, sans-serif" font-size="9" font-weight="800" text-anchor="middle" fill="#fff">2</text><text x="0" y="4" font-family="Arial, Helvetica, sans-serif" font-size="9" font-weight="800" text-anchor="middle" fill="#fff">1</text><text x="12" y="12.5" font-family="Arial, Helvetica, sans-serif" font-size="9" font-weight="800" text-anchor="middle" fill="#fff">3</text>
<circle cx="0" cy="-13" r="4.6" fill="url(#goldG)" stroke="#fff" stroke-width="1.8"/></g>
<circle cx="80" cy="80" r="7" fill="#aab6bf" stroke="#fff" stroke-width="2.4"/>
</svg>