<svg xmlns="http://www.w3.org/2000/svg" viewBox="0 0 96 96"><defs>
<linearGradient id="brand" x1="0" y1="0" x2="1" y2="1"><stop offset="0" stop-color="#37dbff"/><stop offset="1" stop-color="#5230da"/></linearGradient>
<linearGradient id="goldRing" x1="0" y1="0" x2="1" y2="1"><stop offset="0" stop-color="#ffd75e"/><stop offset="1" stop-color="#d99a12"/></linearGradient>
<linearGradient id="goldG" x1="0" y1="0" x2="0" y2="1"><stop offset="0" stop-color="#ffd75e"/><stop offset="1" stop-color="#e6a417"/></linearGradient>
<linearGradient id="greenG" x1="0" y1="0" x2="0" y2="1"><stop offset="0" stop-color="#3ed388"/><stop offset="1" stop-color="#0f8a52"/></linearGradient>
<linearGradient id="blueG" x1="0" y1="0" x2="0" y2="1"><stop offset="0" stop-color="#5ea8ff"/><stop offset="1" stop-color="#2f6fe0"/></linearGradient>
<linearGradient id="accG" x1="0" y1="0" x2="0" y2="1"><stop offset="0" stop-color="#7a5cf0"/><stop offset="1" stop-color="#401d91"/></linearGradient>
<linearGradient id="cyanG" x1="0" y1="0" x2="0" y2="1"><stop offset="0" stop-color="#4fd9f8"/><stop offset="1" stop-color="#0e7490"/></linearGradient>
<linearGradient id="roseG" x1="0" y1="0" x2="0" y2="1"><stop offset="0" stop-color="#ff7d6e"/><stop offset="1" stop-color="#e03a2c"/></linearGradient>
<linearGradient id="lumin" x1="0" y1="0" x2="1" y2="1"><stop offset="0" stop-color="#7ee8ff"/><stop offset=".55" stop-color="#9b8cff"/><stop offset="1" stop-color="#ffd75e"/></linearGradient>
<radialGradient id="navyGlow" cx=".5" cy=".42" r=".65"><stop offset="0" stop-color="#274b66"/><stop offset="1" stop-color="#011624"/></radialGradient>
</defs>
<circle cx="48" cy="48" r="46" fill="url(#brand)" opacity=".09"/>
<g transform="translate(48,48) scale(1.5)">
<line x1="-8" y1="-16" x2="-8" y2="14" stroke="#67737c" stroke-width="2.8" stroke-linecap="round"/>
<path d="M-8,-16 h15 v11 h-15 Z" fill="#fff" stroke="#011624" stroke-width="1.6"/>
<rect x="-8" y="-16" width="5" height="3.67" fill="#011624"/><rect x="-8" y="-8.66" width="5" height="3.67" fill="#011624"/><rect x="-3" y="-12.33" width="5" height="3.67" fill="#011624"/><rect x="2" y="-16" width="5" height="3.67" fill="#011624"/><rect x="2" y="-8.66" width="5" height="3.67" fill="#011624"/>
<path d="M-14,17 C-8,14 8,14 14,17" fill="none" stroke="#b9c4cc" stroke-width="2.4" stroke-linecap="round"/></g>
<circle cx="80" cy="80" r="7" fill="#c98a4b" stroke="#fff" stroke-width="2.4"/>
</svg>