<svg xmlns="http://www.w3.org/2000/svg" viewBox="0 0 96 96"><defs>
<linearGradient id="brand" x1="0" y1="0" x2="1" y2="1"><stop offset="0" stop-color="#37dbff"/><stop offset="1" stop-color="#5230da"/></linearGradient>
<linearGradient id="goldRing" x1="0" y1="0" x2="1" y2="1"><stop offset="0" stop-color="#ffd75e"/><stop offset="1" stop-color="#d99a12"/></linearGradient>
<linearGradient id="goldG" x1="0" y1="0" x2="0" y2="1"><stop offset="0" stop-color="#ffd75e"/><stop offset="1" stop-color="#e6a417"/></linearGradient>
<linearGradient id="greenG" x1="0" y1="0" x2="0" y2="1"><stop offset="0" stop-color="#3ed388"/><stop offset="1" stop-color="#0f8a52"/></linearGradient>
<linearGradient id="blueG" x1="0" y1="0" x2="0" y2="1"><stop offset="0" stop-color="#5ea8ff"/><stop offset="1" stop-color="#2f6fe0"/></linearGradient>
<linearGradient id="accG" x1="0" y1="0" x2="0" y2="1"><stop offset="0" stop-color="#7a5cf0"/><stop offset="1" stop-color="#401d91"/></linearGradient>
<linearGradient id="cyanG" x1="0" y1="0" x2="0" y2="1"><stop offset="0" stop-color="#4fd9f8"/><stop offset="1" stop-color="#0e7490"/></linearGradient>
<linearGradient id="roseG" x1="0" y1="0" x2="0" y2="1"><stop offset="0" stop-color="#ff7d6e"/><stop offset="1" stop-color="#e03a2c"/></linearGradient>
<linearGradient id="lumin" x1="0" y1="0" x2="1" y2="1"><stop offset="0" stop-color="#7ee8ff"/><stop offset=".55" stop-color="#9b8cff"/><stop offset="1" stop-color="#ffd75e"/></linearGradient>
<radialGradient id="navyGlow" cx=".5" cy=".42" r=".65"><stop offset="0" stop-color="#274b66"/><stop offset="1" stop-color="#011624"/></radialGradient>
</defs>
<circle cx="48" cy="48" r="46" fill="url(#goldRing)" opacity=".13"/>
<g transform="translate(48,48) scale(1.5)">
<path transform="scale(1)" d="M0,13 C-2.5,10.5 -14,4 -14,-4.5 C-14,-10.5 -9.5,-14 -5,-14 C-2,-14 0,-12.5 0,-10.5 C0,-12.5 2,-14 5,-14 C9.5,-14 14,-10.5 14,-4.5 C14,4 2.5,10.5 0,13 Z"
fill="url(#goldG)" stroke="#fff" stroke-width="1.8"/>
<text x="0" y="3.5" font-family="Arial, Helvetica, sans-serif" font-size="12" font-weight="800" text-anchor="middle" fill="#fff">50</text>
<path d="M15 -15.6 l1.15 2.45 L18.6 -12 l-2.45 1.15 L15 -8.4 l-1.15 -2.45 L11.4 -12 l2.45 -1.15 Z" fill="#f5b700"/><path d="M-16 -8.6 l0.83 1.77 L-13.4 -6 l-1.77 0.83 L-16 -3.4 l-0.83 -1.77 L-18.6 -6 l1.77 -0.83 Z" fill="#37dbff"/></g>
<circle cx="80" cy="80" r="7" fill="#e6b422" stroke="#fff" stroke-width="2.4"/>
</svg>